<?xml version="1.0" encoding="UTF-8" standalone="no"?>
<svg
   width="13.7499"
   height="13.75"
   viewBox="0 0 13.7499 13.75"
   fill="none"
   version="1.1"
   id="svg9574"
   sodipodiDocname="prijava.svg"
   inkscapeExport-filename="made\ic_LogIn.svg"
   inkscapeExport-xdpi="96"
   inkscapeExport-ydpi="96"
   xmlnsInkscape="http://www.inkscape.org/namespaces/inkscape"
   xmlnsSodipodi="http://sodipodi.sourceforge.net/DTD/sodipodi-0.dtd"
   xmlns="http://www.w3.org/2000/svg"
   xmlnsSvg="http://www.w3.org/2000/svg">
  <defs
     id="defs9578" />
  <sodipodiNamedview
     id="namedview9576"
     pagecolor="#ffffff"
     bordercolor="#000000"
     borderopacity="0.25"
     inkscapeShowpageshadow="2"
     inkscapePageopacity="0.0"
     inkscapePagecheckerboard="0"
     inkscapeDeskcolor="#d1d1d1"
     showgrid="false" />
  <path
     d="m 13.5669,6.43326 -3.125,-3.125 C 10.324,3.19441 10.1661,3.13141 10.0022,3.13284 9.83838,3.13426 9.68162,3.19999 9.56574,3.31587 9.44986,3.43175 9.38413,3.58851 9.3827,3.75238 9.38128,3.91625 9.44428,4.07413 9.55812,4.19201 L 11.6163,6.25013 H 4.375 c -0.16576,0 -0.32473,0.06585 -0.44194,0.18306 C 3.81585,6.5504 3.75,6.70937 3.75,6.87513 3.75,7.04089 3.81585,7.19986 3.93306,7.31707 4.05027,7.43428 4.20924,7.50013 4.375,7.50013 h 7.2413 L 9.55812,9.55826 C 9.49843,9.61591 9.45082,9.68488 9.41806,9.76113 9.38531,9.83738 9.36806,9.9194 9.36734,10.0024 c -7.2e-4,0.083 0.0151,0.1653 0.04652,0.2421 0.03143,0.0768 0.07784,0.1466 0.13652,0.2053 0.05868,0.0586 0.12846,0.105 0.20527,0.1365 0.07681,0.0314 0.15915,0.0472 0.24215,0.0465 0.0829,-7e-4 0.165,-0.018 0.2412,-0.0507 0.0763,-0.0328 0.1452,-0.0804 0.2029,-0.1401 l 3.125,-3.12499 c 0.1171,-0.11721 0.183,-0.27615 0.183,-0.44188 0,-0.16573 -0.0659,-0.32467 -0.183,-0.44187 z"
     fill="#ffffff"
     id="path9570" />
  <path
     d="M 3.125,12.5 H 1.25 V 1.25 H 3.125 C 3.29076,1.25 3.44973,1.18415 3.56694,1.06694 3.68415,0.94973 3.75,0.79076 3.75,0.625 3.75,0.45924 3.68415,0.300269 3.56694,0.183058 3.44973,0.065848 3.29076,0 3.125,0 h -2.5 C 0.45924,0 0.300269,0.065848 0.183058,0.183058 0.065848,0.300269 0,0.45924 0,0.625 v 12.5 c 0,0.1658 0.065848,0.3247 0.183058,0.4419 C 0.300269,13.6842 0.45924,13.75 0.625,13.75 h 2.5 c 0.16576,0 0.32473,-0.0658 0.44194,-0.1831 C 3.68415,13.4497 3.75,13.2908 3.75,13.125 3.75,12.9592 3.68415,12.8003 3.56694,12.6831 3.44973,12.5658 3.29076,12.5 3.125,12.5 Z"
     fill="#ffffff"
     id="path9572" />
</svg>