<?xml version="1.0" encoding="UTF-8" standalone="no"?>
<svg
   width="21.999769"
   height="22"
   viewBox="0 0 21.999769 22"
   fill="none"
   version="1.1"
   id="svg274"
   sodipodiDocname="ic_LogOut.svg"
   inkscapeExport-filename="..\made\ic_LogOut.svg"
   inkscapeExport-xdpi="96"
   inkscapeExport-ydpi="96"
   xmlnsInkscape="http://www.inkscape.org/namespaces/inkscape"
   xmlnsSodipodi="http://sodipodi.sourceforge.net/DTD/sodipodi-0.dtd"
   xmlns="http://www.w3.org/2000/svg"
   xmlnsSvg="http://www.w3.org/2000/svg">
  <defs
     id="defs278" />
  <sodipodiNamedview
     id="namedview276"
     pagecolor="#ffffff"
     bordercolor="#000000"
     borderopacity="0.25"
     inkscapeShowpageshadow="2"
     inkscapePageopacity="0.0"
     inkscapePagecheckerboard="0"
     inkscapeDeskcolor="#d1d1d1"
     showgrid="false" />
  <path
     d="m 1.0590285,10.2924 4.99999,-5 c 0.1886,-0.1821 0.4412,-0.2829 0.7034,-0.2806 0.2622,0.0022 0.513,0.1074 0.6984,0.2928 0.1854,0.1854 0.2906,0.4362 0.2929,0.6984 0.0023,0.2622 -0.0985,0.5148 -0.2807,0.7034 l -3.29299,3.2929999 H 15.766019 c 0.2652,0 0.5196,0.1054001 0.7071,0.2929001 0.1876,0.1876 0.2929,0.4419 0.2929,0.7071 0,0.2652 -0.1053,0.5196 -0.2929,0.7071 -0.1875,0.1876 -0.4419,0.2929 -0.7071,0.2929 H 4.1800285 l 3.29299,3.293 c 0.0955,0.0923 0.1717,0.2026 0.2241,0.3246 0.0524,0.122 0.08,0.2533 0.0812,0.386 0.0011,0.1328 -0.0242,0.2645 -0.0745,0.3874 -0.0502,0.1229 -0.1245,0.2345 -0.2184,0.3284 -0.0939,0.0939 -0.2055,0.1682 -0.3284,0.2185 -0.1229,0.0502 -0.2546,0.0755 -0.3874,0.0744 -0.1328,-0.0012 -0.264,-0.0288 -0.386,-0.0812 -0.122,-0.0524 -0.2323,-0.1286 -0.3246,-0.2241 l -4.99999,-5 c -0.18746992,-0.1875 -0.29277992,-0.4418 -0.29277992,-0.707 0,-0.2651 0.10531,-0.5194 0.29277992,-0.707 z"
     fill="#ffffff"
     id="path270" />
  <path
     d="m 16.926794,19.927024 h 3 V 1.9270239 h -3 c -0.2652,0 -0.5196,-0.10536 -0.7071,-0.29289 -0.1875,-0.18754 -0.2929,-0.44189 -0.2929,-0.70710995 0,-0.26522 0.1054,-0.51957 0.2929,-0.70711 0.1875,-0.18753 0.4419,-0.29289 0.7071,-0.29289 h 4 c 0.2652,0 0.5196,0.10536 0.7071,0.29289 0.1876,0.18754 0.2929,0.44189 0.2929,0.70711 V 20.927024 c 0,0.2652 -0.1053,0.5196 -0.2929,0.7071 -0.1875,0.1875 -0.4419,0.2929 -0.7071,0.2929 h -4 c -0.2652,0 -0.5196,-0.1054 -0.7071,-0.2929 -0.1875,-0.1875 -0.2929,-0.4419 -0.2929,-0.7071 0,-0.2652 0.1054,-0.5196 0.2929,-0.7071 0.1875,-0.1875 0.4419,-0.2929 0.7071,-0.2929 z"
     fill="#ffffff"
     id="path272" />
</svg>