<?xml version="1.0" encoding="UTF-8" standalone="no"?>
<svg
   width="36"
   height="33.194756"
   viewBox="0 0 36 33.194756"
   fill="none"
   version="1.1"
   id="svg1554"
   sodipodi:docname="ic_MenuHamburger.svg"
   xmlns:inkscape="http://www.inkscape.org/namespaces/inkscape"
   xmlns:sodipodi="http://sodipodi.sourceforge.net/DTD/sodipodi-0.dtd"
   xmlns="http://www.w3.org/2000/svg"
   xmlns:svg="http://www.w3.org/2000/svg">
  <defs
     id="defs1558" />
  <sodipodi:namedview
     id="namedview1556"
     pagecolor="#ffffff"
     bordercolor="#000000"
     borderopacity="0.25"
     inkscape:showpageshadow="2"
     inkscape:pageopacity="0.0"
     inkscape:pagecheckerboard="0"
     inkscape:deskcolor="#d1d1d1"
     showgrid="false" />
  <path
     d="M 32.961,6.077926 H 3.03896 C 1.35584,6.077926 0,4.722076 0,3.038956 0,1.355846 1.35584,0 3.03896,0 H 32.961 C 34.6442,0 36,1.355846 36,3.038956 c 0,1.68312 -1.3558,3.03897 -3.039,3.03897 z M 36,16.597356 c 0,-1.6831 -1.3558,-3.0389 -3.039,-3.0389 H 3.03896 c -1.68312,0 -3.03896,1.3558 -3.03896,3.0389 0,1.6832 1.35584,3.039 3.03896,3.039 H 32.961 c 1.6832,0 3.039,-1.3558 3.039,-3.039 z m 0,13.5585 c 0,-1.6831 -1.3558,-3.039 -3.039,-3.039 H 3.03896 c -1.68312,0 -3.03896,1.3559 -3.03896,3.039 0,1.6831 1.35584,3.0389 3.03896,3.0389 H 32.961 c 1.6832,0 3.039,-1.3558 3.039,-3.0389 z"
     fill="#ffffff"
     id="path1552" />
</svg>
