<?xml version="1.0" encoding="UTF-8" standalone="no"?>
<svg
   width="30"
   height="30"
   viewBox="0 0 30 30"
   fill="none"
   version="1.1"
   id="svg1066"
   xmlns="http://www.w3.org/2000/svg"
   xmlns:svg="http://www.w3.org/2000/svg">
  <defs
     id="defs1070" />
  <path
     d="M 19.361,20.4365 C 16.1327,23.2554 11.3055,24.1435 7.24468,22.4831 2.34824,20.4812 -0.770804,14.85 0.165966,9.61066 1.10329,4.36769 5.97805,0.126802 11.4292,0.00591972 11.5295,0.00425237 11.6298,0.0036966 11.7304,0.00397449 17.0879,0.0548285 22.1385,4.18901 23.1309,9.53897 23.7961,13.1249 22.649,16.9989 20.1605,19.6634 l 9.667,9.3982 c 0.2073,0.219 0.1714,0.2918 0.1681,0.4138 -0.0117,0.4238 -0.5863,0.7022 -0.9432,0.3832 z M 11.5867,1.11554 C 6.80478,1.16083 2.31767,4.77619 1.3231,9.48311 0.591139,12.9481 1.74411,16.7544 4.27958,19.2296 7.19132,22.0718 11.8001,23.0261 15.6445,21.4541 20.0916,19.6361 22.9202,14.4974 22.0379,9.74155 21.1634,5.02657 16.7969,1.22697 11.8596,1.11721 11.7687,1.11582 11.6777,1.11526 11.5867,1.11554 Z"
     fill="#006daa"
     id="path1064" />
</svg>
