<?xml version="1.0" encoding="UTF-8" standalone="no"?>
<svg
   width="21.333349"
   height="31.8393"
   viewBox="0 0 21.333349 31.8393"
   fill="none"
   version="1.1"
   id="svg1400"
   sodipodiDocname="ic_MapOrange.svg"
   xmlnsInkscape="http://www.inkscape.org/namespaces/inkscape"
   xmlnsSodipodi="http://sodipodi.sourceforge.net/DTD/sodipodi-0.dtd"
   xmlns="http://www.w3.org/2000/svg"
   xmlnsSvg="http://www.w3.org/2000/svg">
  <defs
     id="defs1404" />
  <sodipodiNamedview
     id="namedview1402"
     pagecolor="#ffffff"
     bordercolor="#000000"
     borderopacity="0.25"
     inkscapeShowpageshadow="2"
     inkscapePageopacity="0.0"
     inkscapePagecheckerboard="0"
     inkscapeDeskcolor="#d1d1d1"
     showgrid="false" />
  <path
     d="m 10.66665,31.8393 -0.5486,-0.794 C 9.70535,30.4473 0,16.3327 0,10.6667 0,4.78533 4.78535,0 10.66665,0 c 5.8814,0 10.6667,4.78533 10.6667,10.6667 0,5.666 -9.7053,19.7806 -10.118,20.3786 z m 0,-30.50597 c -5.1466,0 -9.33331,4.18667 -9.33331,9.33337 0,4.5246 7.25671,15.7033 9.33331,18.8093 2.0767,-3.106 9.3334,-14.2847 9.3334,-18.8093 0,-5.1467 -4.1867,-9.33337 -9.3334,-9.33337 z"
     fill="#ff7d00"
     id="path1396" />
  <path
     d="m 10.66665,15.3333 c -2.5726,0 -4.6666,-2.0933 -4.6666,-4.6666 0,-2.57337 2.094,-4.6667 4.6666,-4.6667 2.5727,0 4.6667,2.09333 4.6667,4.6667 0,2.5733 -2.094,4.6666 -4.6667,4.6666 z m 0,-7.99997 c -1.838,0 -3.3333,1.49534 -3.3333,3.33337 0,1.838 1.4953,3.3333 3.3333,3.3333 1.838,0 3.3334,-1.4953 3.3334,-3.3333 0,-1.83803 -1.4954,-3.33337 -3.3334,-3.33337 z"
     fill="#ff7d00"
     id="path1398" />
</svg>
