<?xml version="1.0" encoding="UTF-8" standalone="no"?>
<svg
   width="22"
   height="30"
   viewBox="0 0 22 30"
   fill="none"
   version="1.1"
   id="svg1709"
   xmlns="http://www.w3.org/2000/svg"
   xmlnsSvg="http://www.w3.org/2000/svg">
  <defs
     id="defs1713" />
  <path
     d="M 21.93,6.67 V 6.58 C 21.8819,6.47718 21.8178,6.38267 21.74,6.3 l -6,-6 C 15.6573,0.22222 15.5628,0.15808 15.46,0.11 15.4301,0.10576 15.3999,0.10576 15.37,0.11 15.2745,0.05417 15.1693,0.01686 15.06,0 H 1 C 0.73478,0 0.48043,0.10536 0.29289,0.29289 0.10536,0.48043 0,0.73478 0,1 v 28 c 0,0.2652 0.10536,0.5196 0.29289,0.7071 C 0.48043,29.8946 0.73478,30 1,30 h 20 c 0.2652,0 0.5196,-0.1054 0.7071,-0.2929 C 21.8946,29.5196 22,29.2652 22,29 V 6.94 C 21.9863,6.84777 21.9629,6.75725 21.93,6.67 Z M 18.59,6 H 16 V 3.41 Z M 20,28 H 2 V 2 h 12 v 5 c 0,0.26522 0.1054,0.51957 0.2929,0.70711 C 14.4804,7.89464 14.7348,8 15,8 h 5 z"
     fill="#006daa"
     id="path1705" />
  <path
     d="m 4,14 c 0,0.2652 0.10536,0.5196 0.29289,0.7071 C 4.48043,14.8946 4.73478,15 5,15 h 12 c 0.2652,0 0.5196,-0.1054 0.7071,-0.2929 C 17.8946,14.5196 18,14.2652 18,14 18,13.7348 17.8946,13.4804 17.7071,13.2929 17.5196,13.1054 17.2652,13 17,13 H 5 C 4.73478,13 4.48043,13.1054 4.29289,13.2929 4.10536,13.4804 4,13.7348 4,14 Z m 1,5 h 9 c 0.2652,0 0.5196,-0.1054 0.7071,-0.2929 C 14.8946,18.5196 15,18.2652 15,18 15,17.7348 14.8946,17.4804 14.7071,17.2929 14.5196,17.1054 14.2652,17 14,17 H 5 C 4.73478,17 4.48043,17.1054 4.29289,17.2929 4.10536,17.4804 4,17.7348 4,18 4,18.2652 4.10536,18.5196 4.29289,18.7071 4.48043,18.8946 4.73478,19 5,19 Z m 11,2 H 5 C 4.73478,21 4.48043,21.1054 4.29289,21.2929 4.10536,21.4804 4,21.7348 4,22 4,22.2652 4.10536,22.5196 4.29289,22.7071 4.48043,22.8946 4.73478,23 5,23 h 11 c 0.2652,0 0.5196,-0.1054 0.7071,-0.2929 C 16.8946,22.5196 17,22.2652 17,22 17,21.7348 16.8946,21.4804 16.7071,21.2929 16.5196,21.1054 16.2652,21 16,21 Z M 9,11 C 9.2652,11 9.5196,10.8946 9.7071,10.7071 9.8946,10.5196 10,10.2652 10,10 V 5 C 10,4.73478 9.8946,4.48043 9.7071,4.29289 9.5196,4.10536 9.2652,4 9,4 H 4 C 3.73478,4 3.48043,4.10536 3.29289,4.29289 3.10536,4.48043 3,4.73478 3,5 v 5 c 0,0.2652 0.10536,0.5196 0.29289,0.7071 C 3.48043,10.8946 3.73478,11 4,11 Z M 5,6 H 8 V 9 H 5 Z"
     fill="#006daa"
     id="path1707" />
</svg>