<?xml version="1.0" encoding="UTF-8" standalone="no"?>
<svg
   width="26.713932"
   height="26.676802"
   viewBox="0 0 26.713932 26.676802"
   fill="none"
   version="1.1"
   id="svg2196"
   sodipodi:docname="ic_RestroomKeyBlue.svg"
   xmlns:inkscape="http://www.inkscape.org/namespaces/inkscape"
   xmlns:sodipodi="http://sodipodi.sourceforge.net/DTD/sodipodi-0.dtd"
   xmlns="http://www.w3.org/2000/svg"
   xmlns:svg="http://www.w3.org/2000/svg">
  <defs
     id="defs2200" />
  <sodipodi:namedview
     id="namedview2198"
     pagecolor="#ffffff"
     bordercolor="#000000"
     borderopacity="0.25"
     inkscape:showpageshadow="2"
     inkscape:pageopacity="0.0"
     inkscape:pagecheckerboard="0"
     inkscape:deskcolor="#d1d1d1"
     showgrid="false" />
  <path
     d="m 26.284731,6.04546 -1.8934,-1.88 1.8934,-1.88 c 0.251,-0.25108 0.3921,-0.5916 0.3921,-0.94667 0,-0.35507 -0.1411,-0.6956 -0.3921,-0.94667 C 26.033631,0.14105 25.693131,0 25.338031,0 c -0.3551,0 -0.6956,0.14105 -0.9467,0.39212 l -14.0533,14.05337 c -1.3785997,-0.9096 -3.0457897,-1.275 -4.6784597,-1.0255 -1.63267,0.2495 -3.1146,1.0962 -4.15864,2.3759 -1.04404005,1.2798 -1.57586005,2.9016 -1.49241005,4.5511 0.08345,1.6495 0.77623,3.2093 1.94410005,4.3772 1.16788,1.1679 2.72769,1.8606 4.3772,1.9441 1.64951,0.0834 3.27131,-0.4484 4.5511097,-1.4924 1.2797,-1.0441 2.1264,-2.526 2.3759,-4.1587 0.2495,-1.6326 -0.1159,-3.2998 -1.0255,-4.6784 l 6.5067,-6.52 1.88,1.8933 c 0.1246,0.1236 0.2723,0.2214 0.4348,0.2877 0.1624,0.0664 0.3364,0.1 0.5119,0.099 0.1754,0.001 0.3494,-0.0326 0.5118,-0.099 0.1625,-0.0663 0.3102,-0.1641 0.4348,-0.2877 0.125,-0.1239 0.2242,-0.2714 0.2919,-0.4339 0.0677,-0.1624 0.1025,-0.3367 0.1025,-0.5127 0,-0.1761 -0.0348,-0.3503 -0.1025,-0.5128 -0.0677,-0.1625 -0.1669,-0.31 -0.2919,-0.4339 l -1.8933,-1.8133 1.8933,-1.89337 1.88,1.89337 c 0.1246,0.1235 0.2724,0.2213 0.4348,0.2877 0.1625,0.0663 0.3364,0.0999 0.5119,0.0989 0.1755,0.001 0.3494,-0.0326 0.5119,-0.0989 0.1624,-0.0664 0.3102,-0.1642 0.4348,-0.2877 0.1353,-0.1249 0.2433,-0.2764 0.3172,-0.4451 0.0739,-0.1687 0.112,-0.3508 0.112,-0.53494 0,-0.18413 -0.0381,-0.36627 -0.112,-0.53494 -0.0739,-0.16866 -0.1819,-0.3202 -0.3172,-0.44505 z M 6.6713513,24.00549 c -0.79113,0 -1.56449,-0.2346 -2.22228,-0.6742 -0.6578,-0.4395 -1.17049,-1.0642 -1.47324,-1.7951 -0.30275,-0.7309 -0.38196,-1.5352 -0.22762,-2.3111 0.15434,-0.7759 0.5353,-1.4887 1.09471,-2.0481 0.55941,-0.5594 1.27214,-0.9403 2.04807,-1.0947 0.77592,-0.1543 1.58014,-0.0751 2.31114,0.2276 0.7309,0.3028 1.3556,0.8155 1.7951,1.4733 0.4394997,0.6578 0.6740997,1.4311 0.6740997,2.2223 0,1.0608 -0.4214,2.0782 -1.1715997,2.8284 -0.7501,0.7501 -1.7675,1.1716 -2.82838,1.1716 z"
     fill="#006daa"
     id="path2194" />
</svg>
