<?xml version="1.0" encoding="UTF-8" standalone="no"?>
<svg
   width="26.713934"
   height="26.676775"
   viewBox="0 0 26.713934 26.676775"
   fill="none"
   version="1.1"
   id="svg2347"
   sodipodi:docname="ic_RestroomKeyOrange.svg"
   xmlns:inkscape="http://www.inkscape.org/namespaces/inkscape"
   xmlns:sodipodi="http://sodipodi.sourceforge.net/DTD/sodipodi-0.dtd"
   xmlns="http://www.w3.org/2000/svg"
   xmlns:svg="http://www.w3.org/2000/svg">
  <defs
     id="defs2351" />
  <sodipodi:namedview
     id="namedview2349"
     pagecolor="#ffffff"
     bordercolor="#000000"
     borderopacity="0.25"
     inkscape:showpageshadow="2"
     inkscape:pageopacity="0.0"
     inkscape:pagecheckerboard="0"
     inkscape:deskcolor="#d1d1d1"
     showgrid="false" />
  <path
     d="m 26.284734,6.045454 -1.8934,-1.88 1.8934,-1.88 c 0.251,-0.25107 0.3921,-0.5916 0.3921,-0.94666 0,-0.35507 -0.1411,-0.6956 -0.3921,-0.94667 C 26.033634,0.141051 25.693134,0 25.338034,0 c -0.3551,0 -0.6956,0.141051 -0.9467,0.392124 l -14.0533,14.05332 c -1.3786296,-0.9095 -3.0457896,-1.275 -4.6784596,-1.0255 -1.63267,0.2495 -3.1146,1.0962 -4.15864,2.376 -1.04404001,1.2798 -1.57586401,2.9015 -1.49241301,4.551 0.083451,1.6496 0.776233,3.2094 1.94410301,4.3772 1.16788,1.1679 2.72769,1.8607 4.3772,1.9441 1.64952,0.0835 3.27131,-0.4483 4.5511096,-1.4924 1.2797,-1.044 2.1264,-2.5259 2.3759,-4.1586 0.2495,-1.6327 -0.1159,-3.2998 -1.0255,-4.6785 l 6.5067,-6.52 1.88,1.8934 c 0.1246,0.1236 0.2723,0.2213 0.4348,0.2877 0.1624,0.0663 0.3364,0.1 0.5119,0.0989 0.1754,0.0011 0.3494,-0.0326 0.5118,-0.0989 0.1625,-0.0664 0.3102,-0.1641 0.4348,-0.2877 0.125,-0.124 0.2242,-0.2714 0.2919,-0.4339 0.0677,-0.1625 0.1025,-0.3368 0.1025,-0.5128 0,-0.176 -0.0348,-0.3503 -0.1025,-0.5128 -0.0677,-0.1624 -0.1669,-0.3099 -0.2919,-0.4339 l -1.8933,-1.81329 1.8933,-1.89333 1.88,1.89333 c 0.1246,0.12358 0.2724,0.22135 0.4348,0.2877 0.1625,0.06635 0.3364,0.09998 0.5119,0.09897 0.1755,0.00101 0.3494,-0.03262 0.5119,-0.09897 0.1624,-0.06635 0.3102,-0.16412 0.4348,-0.2877 0.1353,-0.12485 0.2433,-0.27639 0.3172,-0.44506 0.0739,-0.16866 0.112,-0.3508 0.112,-0.53494 0,-0.18413 -0.0381,-0.36627 -0.112,-0.53494 -0.0739,-0.16867 -0.1819,-0.3202 -0.3172,-0.44506 z M 6.6713544,24.005444 c -0.79113,0 -1.56449,-0.2346 -2.22228,-0.6741 -0.6578,-0.4395 -1.17049,-1.0643 -1.47324,-1.7952 -0.30275,-0.7309 -0.38196,-1.5351 -0.22762,-2.311 0.15434,-0.776 0.5353,-1.4887 1.09471,-2.0481 0.55941,-0.5594 1.27214,-0.9404 2.04807,-1.0947 0.77592,-0.1544 1.58019,-0.0752 2.31109,0.2276 0.73091,0.3027 1.35565,0.8154 1.79515,1.4732 0.4394996,0.6578 0.6740996,1.4312 0.6740996,2.2223 0,1.0609 -0.4214,2.0783 -1.1715996,2.8284 -0.7501,0.7502 -1.76752,1.1716 -2.82838,1.1716 z"
     fill="#ff7d00"
     id="path2345" />
</svg>
