<?xml version="1.0" encoding="UTF-8" standalone="no"?>
<svg
   width="16.690725"
   height="15.00821"
   viewBox="0 0 17.358299 11.6667"
   fill="none"
   version="1.1"
   id="svg9122"
   sodipodiDocname="pogledajlozinkuoko.svg"
   xmlnsInkscape="http://www.inkscape.org/namespaces/inkscape"
   xmlnsSodipodi="http://sodipodi.sourceforge.net/DTD/sodipodi-0.dtd"
   xmlns="http://www.w3.org/2000/svg"
   xmlnsSvg="http://www.w3.org/2000/svg">
  <defs
     id="defs9126" />
  <sodipodiNamedview
     id="namedview9124"
     pagecolor="#ffffff"
     bordercolor="#000000"
     borderopacity="0.25"
     inkscapeShowpageshadow="2"
     inkscapePageopacity="0.0"
     inkscapePagecheckerboard="0"
     inkscapeDeskcolor="#d1d1d1"
     showgrid="false" />
  <path
     d="M 8.675,0 C 5.075,0 2.00833,2.775 0.291667,5.375 L 0,5.83333 0.3,6.29167 c 1.70833,2.6 4.775,5.37503 8.375,5.37503 3.6,0 6.6667,-2.77503 8.3833,-5.37503 l 0.3,-0.45834 -0.3,-0.45833 C 15.3417,2.775 12.275,0 8.675,0 Z m 0,10 C 5.94167,10 3.5,7.925 2.00833,5.83333 3.50833,3.74167 5.95,1.66667 8.675,1.66667 c 2.725,0 5.175,2.075 6.6667,4.16666 C 13.85,7.925 11.4083,10 8.675,10 Z"
     fill="#000000"
     id="path9118" />
  <path
     d="M 8.67489,2.5 C 8.01562,2.5 7.37115,2.6955 6.82299,3.06177 6.27482,3.42804 5.84758,3.94863 5.59529,4.55772 5.343,5.16681 5.27699,5.83703 5.4056,6.48363 5.53422,7.13024 5.85169,7.72418 6.31787,8.19036 6.78404,8.65653 7.37798,8.974 8.02459,9.10262 8.67119,9.23124 9.34141,9.16522 9.9505,8.91293 10.5596,8.66064 11.0802,8.2334 11.4465,7.68523 11.8127,7.13707 12.0082,6.4926 12.0082,5.83333 12.0082,4.94928 11.657,4.10143 11.0319,3.47631 10.4068,2.85119 9.55894,2.5 8.67489,2.5 Z m 0,5 C 8.34525,7.5 8.02302,7.40225 7.74894,7.21912 7.47486,7.03598 7.26123,6.77568 7.13509,6.47114 7.00894,6.1666 6.97594,5.83148 7.04025,5.50818 7.10455,5.18488 7.26329,4.88791 7.49638,4.65482 7.72946,4.42173 8.02644,4.263 8.34974,4.19869 8.67304,4.13438 9.00815,4.16739 9.31269,4.29353 9.61724,4.41968 9.87753,4.6333 10.0607,4.90738 c 0.1831,0.27408 0.2809,0.59632 0.2809,0.92595 0,0.44203 -0.1756,0.86595 -0.4882,1.17851 C 9.54084,7.3244 9.11692,7.5 8.67489,7.5 Z"
     fill="#000000"
     id="path9120" />
</svg>