<?xml version="1.0" encoding="UTF-8" standalone="no"?>
<svg
   width="28"
   height="24"
   viewBox="0 0 28 24"
   fill="none"
   version="1.1"
   id="svg2687"
   sodipodi:docname="ic_StatsOrange.svg"
   inkscape:export-filename="..\made\ic_StatsOrange.svg"
   inkscape:export-xdpi="96"
   inkscape:export-ydpi="96"
   xmlns:inkscape="http://www.inkscape.org/namespaces/inkscape"
   xmlns:sodipodi="http://sodipodi.sourceforge.net/DTD/sodipodi-0.dtd"
   xmlns="http://www.w3.org/2000/svg"
   xmlns:svg="http://www.w3.org/2000/svg">
  <defs
     id="defs2691" />
  <sodipodi:namedview
     id="namedview2689"
     pagecolor="#ffffff"
     bordercolor="#000000"
     borderopacity="0.25"
     inkscape:showpageshadow="2"
     inkscape:pageopacity="0.0"
     inkscape:pagecheckerboard="0"
     inkscape:deskcolor="#d1d1d1"
     showgrid="false" />
  <path
     d="m 27.9999,5 v 5.276 c 0,0.0593 -0.0176,0.1172 -0.0506,0.1665 -0.033,0.0493 -0.0798,0.0877 -0.1346,0.1104 -0.0548,0.0227 -0.115,0.0286 -0.1732,0.0171 -0.0582,-0.0116 -0.1116,-0.0401 -0.1536,-0.082 l -1.604,-1.604 -4.551,4.551 c -0.0491,0.0491 -0.1137,0.0796 -0.1828,0.0863 -0.0691,0.0068 -0.1385,-0.0106 -0.1962,-0.0493 l -2.912,-1.941 -3.831,2.873 c -0.0495,0.0372 -0.1094,0.0581 -0.1714,0.0599 -0.0619,0.0018 -0.1229,-0.0156 -0.1746,-0.0499 l -2.865,-1.912 -4.89095,3.26 C 5.9986,15.8354 5.86362,15.862 5.73368,15.8359 5.60373,15.8099 5.48945,15.7333 5.41595,15.623 l -0.832,-1.248 C 4.51054,14.2647 4.48395,14.1297 4.51001,13.9997 4.53607,13.8698 4.61266,13.7555 4.72295,13.682 L 10.8339,9.608 c 0.0494,-0.0328 0.1073,-0.0502 0.1665,-0.0502 0.0593,0 0.1172,0.0174 0.1665,0.0502 l 2.791,1.861 3.831,-2.873 c 0.0496,-0.0372 0.1095,-0.0581 0.1715,-0.0599 0.0619,-0.0018 0.1229,0.0156 0.1745,0.0499 l 2.706,1.805 3.275,-3.275 -1.604,-1.604 C 22.47,5.47005 22.4415,5.41661 22.43,5.35845 22.4184,5.3003 22.4243,5.24002 22.447,5.18523 22.4697,5.13044 22.5081,5.08361 22.5574,5.05064 22.6067,5.01767 22.6647,5.00005 22.7239,5 Z m -2.5,15.5 h -1 c -0.1326,0 -0.2597,-0.0527 -0.3535,-0.1464 C 24.0526,20.2598 23.9999,20.1326 23.9999,20 v -6.5 c 0,-0.1326 0.0527,-0.2598 0.1465,-0.3536 C 24.2402,13.0527 24.3673,13 24.4999,13 h 1 c 0.1327,0 0.2598,0.0527 0.3536,0.1464 0.0938,0.0938 0.1464,0.221 0.1464,0.3536 V 20 c 0,0.1326 -0.0526,0.2598 -0.1464,0.3536 C 25.7597,20.4473 25.6326,20.5 25.4999,20.5 Z m -8,0 h -1 c -0.1326,0 -0.2597,-0.0527 -0.3535,-0.1464 C 16.0526,20.2598 15.9999,20.1326 15.9999,20 v -4.5 c 0,-0.1326 0.0527,-0.2598 0.1465,-0.3536 C 16.2402,15.0527 16.3673,15 16.4999,15 h 1 c 0.1327,0 0.2598,0.0527 0.3536,0.1464 0.0938,0.0938 0.1464,0.221 0.1464,0.3536 V 20 c 0,0.1326 -0.0526,0.2598 -0.1464,0.3536 C 17.7597,20.4473 17.6326,20.5 17.4999,20.5 Z m -4,0 h -1 c -0.1326,0 -0.2597,-0.0527 -0.3535,-0.1464 C 12.0526,20.2598 11.9999,20.1326 11.9999,20 v -2.5 c 0,-0.1326 0.0527,-0.2598 0.1465,-0.3536 C 12.2402,17.0527 12.3673,17 12.4999,17 h 1 c 0.1327,0 0.2598,0.0527 0.3536,0.1464 0.0938,0.0938 0.1464,0.221 0.1464,0.3536 V 20 c 0,0.1326 -0.0526,0.2598 -0.1464,0.3536 C 13.7597,20.4473 13.6326,20.5 13.4999,20.5 Z m 8,0 h -1 c -0.1326,0 -0.2597,-0.0527 -0.3535,-0.1464 C 20.0526,20.2598 19.9999,20.1326 19.9999,20 v -3.5 c 0,-0.1326 0.0527,-0.2598 0.1465,-0.3536 C 20.2402,16.0527 20.3673,16 20.4999,16 h 1 c 0.1327,0 0.2598,0.0527 0.3536,0.1464 0.0938,0.0938 0.1464,0.221 0.1464,0.3536 V 20 c 0,0.1326 -0.0526,0.2598 -0.1464,0.3536 C 21.7597,20.4473 21.6326,20.5 21.4999,20.5 Z"
     fill="#ff7d00"
     id="path2681" />
  <path
     d="M 27.505,22 C 27.781,22 28,22.224 28,22.5 v 1 c 0,0.1326 -0.0527,0.2598 -0.1464,0.3536 C 27.7598,23.9473 27.6326,24 27.5,24 H 1 C 0.73478,24 0.48043,23.8946 0.29289,23.7071 0.10536,23.5196 0,23.2652 0,23 V 0.5 C 0,0.36739 0.05268,0.24021 0.14645,0.14645 0.24021,0.05268 0.36739,0 0.5,0 h 1 C 1.63261,0 1.75979,0.05268 1.85355,0.14645 1.94732,0.24021 2,0.36739 2,0.5 V 22 Z"
     fill="#ff7d00"
     id="path2683" />
  <path
     d="m 5.5,20.5 h -1 C 4.36739,20.5 4.24021,20.4473 4.14645,20.3536 4.05268,20.2598 4,20.1326 4,20 V 18.5 C 4,18.3674 4.05268,18.2402 4.14645,18.1464 4.24021,18.0527 4.36739,18 4.5,18 h 1 c 0.13261,0 0.25979,0.0527 0.35355,0.1464 C 5.94732,18.2402 6,18.3674 6,18.5 V 20 C 6,20.1326 5.94732,20.2598 5.85355,20.3536 5.75979,20.4473 5.63261,20.5 5.5,20.5 Z m 4,0 h -1 C 8.3674,20.5 8.2402,20.4473 8.1464,20.3536 8.0527,20.2598 8,20.1326 8,20 V 17.5 C 8,17.3674 8.0527,17.2402 8.1464,17.1464 8.2402,17.0527 8.3674,17 8.5,17 h 1 c 0.1326,0 0.2598,0.0527 0.3536,0.1464 C 9.9473,17.2402 10,17.3674 10,17.5 V 20 C 10,20.1326 9.9473,20.2598 9.8536,20.3536 9.7598,20.4473 9.6326,20.5 9.5,20.5 Z"
     fill="#ff7d00"
     id="path2685" />
</svg>
