<?xml version="1.0" encoding="UTF-8" standalone="no"?>
<svg
   width="26.186872"
   height="34.148174"
   viewBox="0 0 26.186872 34.148174"
   fill="none"
   version="1.1"
   id="svg2880"
   sodipodiDocname="ic_TrashCanDelete.svg"
   xmlnsInkscape="http://www.inkscape.org/namespaces/inkscape"
   xmlnsSodipodi="http://sodipodi.sourceforge.net/DTD/sodipodi-0.dtd"
   xmlns="http://www.w3.org/2000/svg"
   xmlnsSvg="http://www.w3.org/2000/svg">
  <defs
     id="defs2884" />
  <sodipodiNamedview
     id="namedview2882"
     pagecolor="#ffffff"
     bordercolor="#000000"
     borderopacity="0.25"
     inkscapeShowpageshadow="2"
     inkscapePageopacity="0.0"
     inkscapePagecheckerboard="0"
     inkscapeDeskcolor="#d1d1d1"
     showgrid="false" />
  <path
     d="m 24.367773,12.197641 -0.55,16.6471 c -0.0469,1.4258 -0.6475,2.7771 -1.6743,3.7673 -1.0269,0.9901 -2.3992,1.5412 -3.8257,1.5361 H 7.867753 c -1.42557,0.0051 -2.79709,-0.5452 -3.82382,-1.5342 -1.02672,-0.989 -1.62793,-2.3389 -1.67618,-3.7637 l -0.55,-16.6526 c -0.01204,-0.3647 0.12129,-0.7192 0.37064,-0.9856 0.24935,-0.2663 0.59431,-0.4227 0.95898,-0.4348 0.36467,-0.012 0.71919,0.1213 0.98556,0.3707 0.26638,0.2493 0.42278,0.5943 0.43482,0.9589 l 0.55,16.6513 c 0.02738,0.7108 0.32916,1.3834 0.84195,1.8765 0.51278,0.493 1.19668,0.7682 1.90805,0.7676 h 10.45002 c 0.7123,5e-4 1.3969,-0.2754 1.9099,-0.7696 0.5129,-0.4942 0.8141,-1.1682 0.8401,-1.88 l 0.55,-16.6458 c 0.012,-0.3646 0.1684,-0.7096 0.4348,-0.9589 0.2664,-0.2494 0.6209,-0.3827 0.9856,-0.3707 0.3646,0.0121 0.7096,0.1685 0.9589,0.4348 0.2494,0.2664 0.3827,0.6209 0.3707,0.9856 z m 1.8191,-5.5398801 c 0,0.36468 -0.1449,0.71441 -0.4027,0.97228 -0.2579,0.25786 -0.6076,0.40272 -0.9723,0.40272 H 1.375003 c -0.36468,0 -0.71441,-0.14486 -0.97228,-0.40272 C 0.144863,7.3721709 0,7.0224409 0,6.6577609 c 0,-0.36467 0.144863,-0.71441 0.402723,-0.97227 0.25787,-0.25786 0.6076,-0.40273 0.97228,-0.40273 h 4.2625 c 0.43566,0.00118 0.85618,-0.15978 1.17972,-0.45155 0.32354,-0.29177 0.52695,-0.69348 0.57065,-1.12695 0.10147,-1.01683 0.57786,-1.95947 1.33636,-2.64425 0.75854,-0.68478097 1.74474,-1.06265497 2.76664,-1.059996972348 h 3.2038 c 1.0218,-0.0026579977 2.0081,0.375216002348 2.7666,1.059996972348 0.7585,0.68478 1.2349,1.62742 1.3364,2.64425 0.0437,0.43347 0.2471,0.83518 0.5706,1.12695 0.3235,0.29177 0.7441,0.45273 1.1797,0.45155 h 4.2625 c 0.3647,0 0.7144,0.14487 0.9723,0.40273 0.2579,0.25786 0.4027,0.6076 0.4027,0.97227 z m -16.412,-1.375 h 6.6385 c -0.1807,-0.41285 -0.2989,-0.85032 -0.3506,-1.298 -0.0341,-0.33892 -0.1927,-0.65314 -0.4453,-0.88177 -0.2525,-0.22863 -0.5808,-0.35539 -0.9215,-0.35573 h -3.2037 c -0.3407,3.4e-4 -0.669,0.1271 -0.9215,0.35573 -0.2526,0.22863 -0.4112,0.54285 -0.4453,0.88177 -0.0522,0.44775 -0.1708,0.88522 -0.352,1.298 z m 1.3846,20.8326801 v -11.7082 c 0,-0.3646 -0.1448,-0.7144 -0.4027,-0.9722 -0.2579,-0.2579 -0.6076,-0.4028 -0.9723,-0.4028 -0.3646,0 -0.71438,0.1449 -0.97225,0.4028 -0.25786,0.2578 -0.40272,0.6076 -0.40272,0.9722 v 11.7136 c 0,0.3647 0.14486,0.7145 0.40272,0.9723 0.25787,0.2579 0.60765,0.4027 0.97225,0.4027 0.3647,0 0.7144,-0.1448 0.9723,-0.4027 0.2579,-0.2578 0.4027,-0.6076 0.4027,-0.9723 z m 6.6193,0 v -11.7082 c 0,-0.3646 -0.1449,-0.7144 -0.4028,-0.9722 -0.2578,-0.2579 -0.6076,-0.4028 -0.9722,-0.4028 -0.3647,0 -0.7144,0.1449 -0.9723,0.4028 -0.2579,0.2578 -0.4027,0.6076 -0.4027,0.9722 v 11.7136 c 0,0.3647 0.1448,0.7145 0.4027,0.9723 0.2579,0.2579 0.6076,0.4027 0.9723,0.4027 0.3646,0 0.7144,-0.1448 0.9722,-0.4027 0.2579,-0.2578 0.4028,-0.6076 0.4028,-0.9723 z"
     fill="#ff7d00"
     id="path2878" />
</svg>