<?xml version="1.0" encoding="UTF-8" standalone="no"?>
<svg
   width="27.52001"
   height="19.839979"
   viewBox="0 0 27.52001 19.839979"
   fill="none"
   version="1.1"
   id="svg3938"
   sodipodiDocname="ic_UsersOrange.svg"
   xmlnsInkscape="http://www.inkscape.org/namespaces/inkscape"
   xmlnsSodipodi="http://sodipodi.sourceforge.net/DTD/sodipodi-0.dtd"
   xmlns="http://www.w3.org/2000/svg"
   xmlnsSvg="http://www.w3.org/2000/svg">
  <sodipodiNamedview
     id="namedview3940"
     pagecolor="#ffffff"
     bordercolor="#000000"
     borderopacity="0.25"
     inkscapeShowpageshadow="2"
     inkscapePageopacity="0.0"
     inkscapePagecheckerboard="0"
     inkscapeDeskcolor="#d1d1d1"
     showgrid="false" />
  <g
     clip-path="url(#clip0_1645_1805)"
     id="g3931"
     transform="translate(-2.23999,-6.07812)">
    <path
       d="m 25.024,18.6221 c 0.928,-0.768 1.536,-1.952 1.536,-3.264 0,-2.208 -1.792,-4.16 -3.84,-4.16 -2.048,0 -3.84,1.952 -3.84,4.16 0,1.312 0.608,2.496 1.536,3.264 -0.416,0.16 -0.8,0.32 -1.184,0.544 -1.216,-1.44 -2.816,-2.56 -4.672,-3.104 1.408,-0.992 2.4,-2.688 2.4,-4.544 0,-2.91198 -2.4,-5.43998 -5.12,-5.43998 -2.72001,0 -5.12001,2.528 -5.12001,5.43998 0,1.856 0.992,3.552 2.4,4.544 -3.968,1.184 -6.88,4.864 -6.88,9.216 0,0.352 0.288,0.64 0.64,0.64 H 29.12 c 0.352,0 0.64,-0.288 0.64,-0.64 0,-3.072 -1.984,-5.696 -4.736,-6.656 z m -4.864,-3.264 c 0,-1.344 1.12,-2.88 2.56,-2.88 1.44,0 2.56,1.536 2.56,2.88 0,1.344 -1.12,2.88 -2.56,2.88 -1.44,0 -2.56,-1.536 -2.56,-2.88 z m -12.16001,-3.84 c 0,-1.95198 1.632,-4.15998 3.84001,-4.15998 2.208,0 3.84,2.208 3.84,4.15998 0,1.952 -1.632,4.16 -3.84,4.16 -2.20801,0 -3.84001,-2.208 -3.84001,-4.16 z m -4.448,13.12 c 0.32,-4.288 3.936,-7.68 8.28801,-7.68 4.384,0 7.968,3.392 8.288,7.68 z m 17.85601,0 c -0.096,-1.6 -0.608,-3.136 -1.44,-4.416 0.832,-0.448 1.76,-0.704 2.752,-0.704 2.976,0 5.408,2.24 5.728,5.12 z"
       fill="#ff7d00"
       id="path3927" />
    <path
       d="m 346.88,-252.799 v 538.88 H -224 v -538.88 z m 2.56,-2.56 h -576 v 544 h 576 z"
       fill="#0000ff"
       id="path3929" />
  </g>
  <defs
     id="defs3936">
    <clipPath
       id="clip0_1645_1805">
      <rect
         width="32"
         height="32"
         fill="#ffffff"
         id="rect3933"
         x="0"
         y="0" />
    </clipPath>
  </defs>
</svg>