<?xml version="1.0" encoding="UTF-8" standalone="no"?>
<svg
   width="20.05097"
   height="15.054788"
   viewBox="0 0 20.05097 15.054788"
   fill="none"
   version="1.1"
   id="svg13191"
   sodipodi:docname="spremicheckmark.svg"
   xmlns:inkscape="http://www.inkscape.org/namespaces/inkscape"
   xmlns:sodipodi="http://sodipodi.sourceforge.net/DTD/sodipodi-0.dtd"
   xmlns="http://www.w3.org/2000/svg"
   xmlns:svg="http://www.w3.org/2000/svg">
  <defs
     id="defs13195" />
  <sodipodi:namedview
     id="namedview13193"
     pagecolor="#ffffff"
     bordercolor="#000000"
     borderopacity="0.25"
     inkscape:showpageshadow="2"
     inkscape:pageopacity="0.0"
     inkscape:pagecheckerboard="0"
     inkscape:deskcolor="#d1d1d1"
     showgrid="false" />
  <path
     d="m 7.326331,15.054788 c -0.1714,-5e-4 -0.34085,-0.0363 -0.49783,-0.1051 -0.15697,-0.0688 -0.29812,-0.1692 -0.41467,-0.2949 L 0.33883101,8.1923175 c -0.22709,-0.24201 -0.348747,-0.56432 -0.33819800398,-0.89602 0.010548004,-0.33171 0.15243800398,-0.64564 0.39444800398,-0.87273 0.24201,-0.22709 0.56432,-0.34874 0.89601999,-0.33819 0.33171,0.01055 0.64564,0.15243 0.87273,0.39444 l 5.15,5.4874705 10.51249,-11.49996848 c 0.1067,-0.132847 0.2394,-0.242482 0.39,-0.322171 0.1506,-0.079689 0.3159,-0.127749 0.4857,-0.14123 0.1699,-0.01348 0.3407,0.007904 0.502,0.06284 0.1613,0.054936 0.3096,0.142263 0.4359,0.256618 0.1263,0.114356 0.2279,0.253321 0.2985,0.408371 0.0707,0.15505 0.1089,0.32289998 0.1123,0.49324998 0.0034,0.17034 -0.0281,0.33959 -0.0924,0.49734 -0.0644,0.15774 -0.1604,0.30067 -0.282,0.41998 L 8.251331,14.642288 c -0.11545,0.128 -0.25611,0.2307 -0.41314,0.3017 -0.15703,0.0709 -0.32705,0.1087 -0.49936,0.1108 z"
     fill="#ffffff"
     id="path13189" />
</svg>
