<?xml version="1.0" encoding="UTF-8" standalone="no"?>
<svg
   width="16.875"
   height="22.499981"
   viewBox="0 0 16.875 22.499981"
   fill="none"
   version="1.1"
   id="svg1793"
   sodipodi:docname="locationvarazdin.svg"
   xmlns:inkscape="http://www.inkscape.org/namespaces/inkscape"
   xmlns:sodipodi="http://sodipodi.sourceforge.net/DTD/sodipodi-0.dtd"
   xmlns="http://www.w3.org/2000/svg"
   xmlns:svg="http://www.w3.org/2000/svg">
  <defs
     id="defs1797" />
  <sodipodi:namedview
     id="namedview1795"
     pagecolor="#ffffff"
     bordercolor="#000000"
     borderopacity="0.25"
     inkscape:showpageshadow="2"
     inkscape:pageopacity="0.0"
     inkscape:pagecheckerboard="0"
     inkscape:deskcolor="#d1d1d1"
     showgrid="false" />
  <path
     d="m 8.4375,0.80357 c 2.0033,0 3.8868,0.66867 5.3033,1.88287 1.4166,1.2142 2.1967,2.82857 2.1967,4.5457 0,2.15554 -1.4116,5.38024 -4.0822,9.32544 -1.3054,1.9284 -2.6233,3.5977 -3.4179,4.5669 -0.7921,-0.9659 -2.1042,-2.6281 -3.4079,-4.5525 -2.67702,-3.9518 -4.092,-7.1814 -4.092,-9.33984 0,-1.71713 0.78012,-3.3315 2.19668,-4.5457 C 4.5507,1.47224 6.4342,0.80357 8.4375,0.80357 Z M 8.4375,0 C 3.7776,0 0,3.23794 0,7.23214 c 0,5.62504 8.4375,15.26784 8.4375,15.26784 0,0 8.4375,-9.6428 8.4375,-15.26784 C 16.875,3.23794 13.0974,0 8.4375,0 Z"
     fill="#ef7c0a"
     id="path1789" />
  <path
     d="m 8.4375,4.01758 c -2.0684,0 -3.75,1.44141 -3.75,3.21429 0,1.77291 1.6816,3.21431 3.75,3.21431 2.0684,0 3.75,-1.4414 3.75,-3.21431 0,-1.77288 -1.6816,-3.21429 -3.75,-3.21429 z m 0,5.5698 c -1.5176,0 -2.748,-1.0547 -2.748,-2.35551 0,-1.30079 1.2304,-2.35547 2.748,-2.35547 1.5176,0 2.748,1.05468 2.748,2.35547 0,1.30081 -1.2304,2.35551 -2.748,2.35551 z"
     fill="#ef7c0a"
     id="path1791" />
</svg>
