<?xml version="1.0" encoding="UTF-8" standalone="no"?>
<svg
   width="13.8125"
   height="13.7812"
   viewBox="0 0 13.8125 13.7812"
   fill="none"
   version="1.1"
   id="svg1682"
   xmlns="http://www.w3.org/2000/svg"
   xmlns:svg="http://www.w3.org/2000/svg">
  <defs
     id="defs1686" />
  <path
     d="m 12.375,13.7812 h -11 C 0.625,13.7812 0,13.1562 0,12.4062 V 2.3125 c 0,-0.75 0.5,-1.375 1.15625,-1.375 h 0.6875 v 0.90625 h -0.6875 c -0.09375,0 -0.21875,0.1875 -0.21875,0.46875 v 10.0937 c 0,0.25 0.21875,0.4688 0.46875,0.4688 H 12.4062 c 0.25,0 0.4688,-0.2188 0.4688,-0.4688 V 2.3125 c 0,-0.28125 -0.1562,-0.46875 -0.2188,-0.46875 H 11.9688 V 0.9375 h 0.6874 c 0.625,0 1.1563,0.625 1.1563,1.375 v 10.0937 c -0.0625,0.75 -0.6875,1.375 -1.4375,1.375 z"
     fill="#006daa"
     id="path1678" />
  <path
     d="M 3.21875,2.78125 C 2.96875,2.78125 2.75,2.5625 2.75,2.3125 V 0.46875 C 2.75,0.21875 2.96875,0 3.21875,0 3.46875,0 3.6875,0.21875 3.6875,0.46875 V 2.3125 C 3.65625,2.5625 3.46875,2.78125 3.21875,2.78125 Z m 7.31245,0 c -0.25,0 -0.4687,-0.21875 -0.4687,-0.46875 V 0.46875 C 10.0625,0.21875 10.2812,0 10.5312,0 10.7812,0 11,0.21875 11,0.46875 V 2.3125 c 0,0.25 -0.2188,0.46875 -0.4688,0.46875 z M 4.59375,0.9375 h 4.5625 V 1.875 h -4.5625 z m -3.6875,2.75 H 12.8437 V 4.625 H 0.90625 Z M 11,5.53125 h 0.9062 V 6.4375 H 11 Z m -1.84375,0 H 10.0938 V 6.4375 H 9.15625 Z m -1.8125,0 H 8.25 V 6.4375 H 7.34375 Z m -1.84375,0 H 6.40625 V 6.4375 H 5.5 Z m -1.84375,0 h 0.9375 V 6.4375 H 3.65625 Z M 11,7.375 h 0.9062 V 8.28125 H 11 Z m -1.84375,0 H 10.0938 V 8.28125 H 9.15625 Z m -1.8125,0 H 8.25 V 8.28125 H 7.34375 Z M 5.5,7.375 H 6.40625 V 8.28125 H 5.5 Z m -1.84375,0 h 0.9375 v 0.90625 h -0.9375 z m -1.8125,0 H 2.75 V 8.28125 H 1.84375 Z M 11,9.1875 h 0.9062 V 10.125 H 11 Z m -1.84375,0 H 10.0938 V 10.125 H 9.15625 Z m -1.8125,0 H 8.25 V 10.125 H 7.34375 Z M 5.5,9.1875 H 6.40625 V 10.125 H 5.5 Z m -1.84375,0 h 0.9375 v 0.9375 h -0.9375 z m -1.8125,0 H 2.75 V 10.125 H 1.84375 Z m 7.3125,1.8438 h 0.93755 v 0.9062 H 9.15625 Z m -1.8125,0 H 8.25 v 0.9062 H 7.34375 Z m -1.84375,0 h 0.90625 v 0.9062 H 5.5 Z m -1.84375,0 h 0.9375 v 0.9062 h -0.9375 z m -1.8125,0 H 2.75 v 0.9062 H 1.84375 Z"
     fill="#006daa"
     id="path1680" />
</svg>
