<?xml version="1.0" encoding="UTF-8" standalone="no"?>
<svg
   width="20"
   height="20"
   viewBox="0 0 20 20"
   fill="none"
   version="1.1"
   id="svg13225"
   sodipodi:docname="urediprofil.svg"
   xmlns:inkscape="http://www.inkscape.org/namespaces/inkscape"
   xmlns:sodipodi="http://sodipodi.sourceforge.net/DTD/sodipodi-0.dtd"
   xmlns="http://www.w3.org/2000/svg"
   xmlns:svg="http://www.w3.org/2000/svg">
  <defs
     id="defs13229" />
  <sodipodi:namedview
     id="namedview13227"
     pagecolor="#ffffff"
     bordercolor="#000000"
     borderopacity="0.25"
     inkscape:showpageshadow="2"
     inkscape:pageopacity="0.0"
     inkscape:pagecheckerboard="0"
     inkscape:deskcolor="#d1d1d1"
     showgrid="false" />
  <path
     fill-rule="evenodd"
     clip-rule="evenodd"
     d="m 13.7444,10.2024 c 0.5694,-0.54691 1.0245,-1.21365 1.3364,-1.95756 0.3119,-0.7439 0.4736,-1.54858 0.4748,-2.36249 0,-1.56009 -0.5854,-3.05629 -1.6272,-4.15945 C 12.8865,0.619746 11.4734,0 10,0 8.52658,0 7.1135,0.619746 6.07163,1.7229 5.02976,2.82606 4.44444,4.32226 4.44444,5.88235 c 0,1.7153 0.70445,3.24471 1.81112,4.32005 C 2.59111,11.7718 0,15.5576 0,20 h 20 c 0,-4.4424 -2.5911,-8.2282 -6.2556,-9.7976 z M 5.55556,5.88235 C 5.5551,5.0715 5.75253,4.27428 6.1287,3.568 6.50487,2.86171 7.04702,2.27033 7.70257,1.85118 8.35812,1.43204 9.10484,1.19935 9.87032,1.17569 10.6358,1.15203 11.3941,1.3382 12.0716,1.71615 c 0.6775,0.37794 1.2513,0.93484 1.6658,1.61668 0.4144,0.68185 0.6554,1.46552 0.6996,2.27502 0.0442,0.80949 -0.1098,1.61736 -0.4473,2.34525 -0.3374,0.72789 -0.8467,1.35112 -1.4786,1.80925 -0.0555,0.04 -0.1178,0.07059 -0.1755,0.10824 -0.1612,0.10588 -0.3278,0.20471 -0.5023,0.28821 -0.0855,0.0412 -0.1755,0.0765 -0.2644,0.1118 -0.1667,0.067 -0.3378,0.1235 -0.5133,0.1682 -0.0834,0.0212 -0.1656,0.0459 -0.2512,0.0624 -0.2611,0.0517 -0.5288,0.087 -0.8044,0.087 -0.27556,0 -0.54333,-0.0353 -0.80556,-0.0858 C 9.10889,10.4859 9.02667,10.4612 8.94333,10.44 8.76931,10.3944 8.59791,10.3383 8.43,10.2718 8.34111,10.2365 8.25222,10.2012 8.16556,10.16 7.99239,10.0756 7.82463,9.97933 7.66333,9.87176 7.60556,9.83412 7.54333,9.80353 7.48778,9.76353 6.89207,9.33157 6.40477,8.75238 6.06809,8.0761 5.73141,7.39982 5.55549,6.64684 5.55556,5.88235 Z M 1.18778,18.8235 C 1.40174,17.035 2.09617,15.3491 3.18853,13.9662 4.2809,12.5833 5.72527,11.5615 7.35,11.0224 8.14111,11.48 9.03444,11.7647 10,11.7647 c 0.9656,0 1.8589,-0.2847 2.65,-0.7423 1.6247,0.5393 3.069,1.5611 4.1613,2.9439 1.0924,1.3829 1.7868,3.0687 2.0009,4.8572 z"
     fill="#ffffff"
     id="path13223" />
</svg>
