<?xml version="1.0" encoding="UTF-8" standalone="no"?>
<svg
   width="16.690725"
   height="15.00821"
   viewBox="0 0 16.690725 15.00821"
   fill="none"
   version="1.1"
   id="svg12400"
   sodipodi:docname="sakrijlozinku.svg"
   inkscape:export-filename="made\ic_HidePassword.svg"
   inkscape:export-xdpi="127.92998"
   inkscape:export-ydpi="127.92998"
   xmlns:inkscape="http://www.inkscape.org/namespaces/inkscape"
   xmlns:sodipodi="http://sodipodi.sourceforge.net/DTD/sodipodi-0.dtd"
   xmlns="http://www.w3.org/2000/svg"
   xmlns:svg="http://www.w3.org/2000/svg">
  <defs
     id="defs12404" />
  <sodipodi:namedview
     id="namedview12402"
     pagecolor="#ffffff"
     bordercolor="#000000"
     borderopacity="0.25"
     inkscape:showpageshadow="2"
     inkscape:pageopacity="0.0"
     inkscape:pagecheckerboard="0"
     inkscape:deskcolor="#d1d1d1"
     showgrid="false" />
  <path
     d="M 2.26166,0.24508 C 2.18396,0.16738 2.09172,0.10575 1.9902,0.0637 1.88868,0.02165 1.77988,0 1.67,0 1.56011,0 1.45131,0.02165 1.34979,0.0637 1.24827,0.10575 1.15603,0.16738 1.07833,0.24508 0.92141,0.402 0.83325,0.61483 0.83325,0.83675 c 0,0.22191 0.08816,0.43474 0.24508,0.59166 L 5.77,6.12008 C 5.47317,6.67226 5.36215,7.30539 5.4534,7.92561 c 0.09125,0.6202 0.37992,1.1946 0.82321,1.6379 0.44329,0.4432 1.01761,0.7319 1.63785,0.8232 0.62021,0.0912 1.25331,-0.0198 1.80551,-0.3166 l 4.6917,4.6916 c 0.0775,0.0781 0.1696,0.1401 0.2712,0.1824 0.1015,0.0424 0.2104,0.0641 0.3205,0.0641 0.11,0 0.2189,-0.0217 0.3204,-0.0641 0.1016,-0.0423 0.1938,-0.1043 0.2712,-0.1824 0.0781,-0.0774 0.1401,-0.1696 0.1824,-0.2711 0.0423,-0.1016 0.0641,-0.2105 0.0641,-0.3205 0,-0.11 -0.0218,-0.219 -0.0641,-0.3205 -0.0423,-0.1016 -0.1043,-0.1937 -0.1824,-0.2712 z m 6.075,8.50833 C 8.00514,8.75341 7.6872,8.62171 7.45278,8.38731 7.21836,8.15291 7.08666,7.83491 7.08666,7.50341 V 7.44508 l 1.30001,1.30003 z"
     fill="#000000"
     id="path12396" />
  <path
     d="M 8.51997,11.67151 C 4.93665,11.75491 2.58665,8.67991 1.85331,7.50491 2.37537,6.6721 3.00278,5.91025 3.71998,5.23819 L 2.50331,4.06319 C 1.56275,4.94942 0.75699,5.96856 0.11165,7.08819 0.03851,7.21488 0,7.35858 0,7.50491 c 0,0.1462 0.03851,0.2899 0.11165,0.4166 0.525,0.9084 3.33333,5.4167 8.24162,5.4167 h 0.2084 c 0.9229,-0.0274 1.8339,-0.2164 2.6916,-0.5583 l -1.3166,-1.3167 c -0.4631,0.1218 -0.9382,0.1917 -1.4167,0.2083 z m 8.0417,-4.58332 C 16.02827,6.16319 13.08667,1.52153 8.11165,1.67153 7.18869,1.69891 6.27768,1.88788 5.41998,2.22986 L 6.73665,3.54653 C 7.19967,3.42472 7.67482,3.35484 8.15331,3.33819 c 3.57496,-0.09166 5.92496,2.99167 6.66666,4.16672 -0.5349,0.8352 -1.1765,1.5972 -1.9083,2.2666 l 1.2583,1.175 c 0.9524,-0.8839 1.7695,-1.9031 2.425,-3.025 0.0681,-0.1296 0.1009,-0.2748 0.0951,-0.42112 -0.0059,-0.14629 -0.0502,-0.28846 -0.1284,-0.4122 z"
     fill="#000000"
     id="path12398" />
</svg>
