<?xml version="1.0" encoding="UTF-8" standalone="no"?>
<svg
   width="13.749866"
   height="13.75"
   viewBox="0 0 13.749866 13.75"
   fill="none"
   version="1.1"
   id="svg7985"
   sodipodi:docname="odjava.svg"
   xmlns:inkscape="http://www.inkscape.org/namespaces/inkscape"
   xmlns:sodipodi="http://sodipodi.sourceforge.net/DTD/sodipodi-0.dtd"
   xmlns="http://www.w3.org/2000/svg"
   xmlns:svg="http://www.w3.org/2000/svg">
  <defs
     id="defs7989" />
  <sodipodi:namedview
     id="namedview7987"
     pagecolor="#ffffff"
     bordercolor="#000000"
     borderopacity="0.25"
     inkscape:showpageshadow="2"
     inkscape:pageopacity="0.0"
     inkscape:pagecheckerboard="0"
     inkscape:deskcolor="#d1d1d1"
     showgrid="false" />
  <path
     d="m 0.182991,7.31674 3.124995,3.12496 c 0.11788,0.1139 0.27576,0.1769 0.43963,0.1755 0.16387,-0.0015 0.32063,-0.0672 0.43651,-0.1831 0.11588,-0.1159 0.18161,-0.2726 0.18304,-0.4365 C 4.368586,9.83375 4.305586,9.67587 4.191746,9.55799 L 2.133616,7.49987 h 7.24125 c 0.16576,0 0.32473,-0.06585 0.44194,-0.18306 0.11726,-0.11721 0.18306,-0.27618 0.18306,-0.44194 0,-0.16576 -0.0658,-0.32473 -0.18306,-0.44194 C 9.699596,6.31572 9.540626,6.24987 9.374866,6.24987 h -7.24125 l 2.05813,-2.05813 c 0.05969,-0.05765 0.1073,-0.12662 0.14006,-0.20287 0.03275,-0.07625 0.05,-0.15826 0.05072,-0.24125 7.2e-4,-0.08299 -0.0151,-0.16529 -0.04652,-0.2421 C 4.304576,3.42871 4.258166,3.35893 4.199486,3.30025 4.140806,3.24156 4.071026,3.19515 3.994216,3.16373 3.917406,3.1323 3.835106,3.11649 3.752116,3.11721 c -0.08299,7.2e-4 -0.165,0.01796 -0.24125,0.05072 -0.07626,0.03276 -0.14522,0.08037 -0.20288,0.14006 l -3.124995,3.125 C 0.065821,6.5502 0,6.70914 0,6.87487 0,7.0406 0.065821,7.19954 0.182991,7.31674 Z"
     fill="#006daa"
     id="path7981" />
  <path
     d="m 10.624866,1.25 h 1.875 V 12.5 h -1.875 c -0.1658,0 -0.3247,0.0658 -0.4419,0.1831 -0.1173,0.1172 -0.1831,0.2761 -0.1831,0.4419 0,0.1658 0.0658,0.3247 0.1831,0.4419 0.1172,0.1173 0.2761,0.1831 0.4419,0.1831 h 2.5 c 0.1658,0 0.3247,-0.0658 0.4419,-0.1831 0.1173,-0.1172 0.1831,-0.2761 0.1831,-0.4419 v -12.5 c 0,-0.16576 -0.0658,-0.324732 -0.1831,-0.441942 C 13.449566,0.065847 13.290666,0 13.124866,0 h -2.5 c -0.1658,0 -0.3247,0.065847 -0.4419,0.183058 -0.1173,0.11721 -0.1831,0.276182 -0.1831,0.441942 0,0.16576 0.0658,0.32473 0.1831,0.44194 0.1172,0.11721 0.2761,0.18306 0.4419,0.18306 z"
     fill="#006daa"
     id="path7983" />
</svg>
