<svg width="102" height="99" viewBox="0 0 102 99" fill="none" xmlns="http://www.w3.org/2000/svg">
<rect width="102" height="99" fill="white"/>
<g clip-path="url(#clip0_1419_7123)">
<path d="M51.6022 83.4358C51.4719 83.2997 51.3807 83.0956 51.3807 82.9867C51.3807 82.4968 51.7326 82.3063 53.1399 81.9933C62.4963 79.9248 69.9762 73.2567 73.5206 63.8534C74.6543 60.8732 75.2017 57.961 75.3189 54.4773C75.4753 49.728 74.7195 45.8768 72.9082 42.1481C71.7093 39.685 70.7711 38.3378 68.8425 36.3101C67.0051 34.3778 65.9886 33.5477 64.0209 32.391C59.9552 29.9959 55.3031 28.9889 50.7422 29.506C49.4 29.6693 49.2566 29.6557 49.0221 29.4379C48.6833 29.125 48.7093 28.6214 49.0742 28.3765C49.8039 27.8866 53.5569 27.7369 56.098 28.0907C66.1189 29.4788 74.1201 37.1947 76.192 47.4418C78.3291 58.0426 74.6022 69.46 66.6923 76.5636C62.9915 79.8976 58.5609 82.2382 53.8697 83.3541C52.2017 83.7487 51.8759 83.7624 51.6022 83.4358Z" fill="#006DAA"/>
<path d="M43.0928 83.0829C42.1546 82.8243 40.7472 82.3616 39.9653 82.035C38.7665 81.5315 38.5319 81.3818 38.4277 81.0552C38.3234 80.7422 38.3495 80.6334 38.584 80.3884C38.9098 80.0346 38.9359 80.0482 41.2815 80.9328C42.0764 81.2321 43.3795 81.6268 44.1874 81.8173C44.9954 82.0078 45.7512 82.2392 45.8554 82.3344C46.0769 82.5249 46.09 83.1645 45.8815 83.3823C45.6339 83.6408 44.9172 83.5592 43.0928 83.0829Z" fill="#006DAA"/>
<path d="M33.3325 78.0871C31.6515 76.7126 30.6611 75.692 30.6611 75.3246C30.6611 74.9707 31.039 74.5625 31.3518 74.5625C31.456 74.5625 32.0815 75.0388 32.707 75.6239C33.3455 76.1955 34.2317 76.9576 34.6747 77.3114C35.5348 78.0054 35.6912 78.4137 35.2742 78.8355C34.9093 79.2165 34.5314 79.0669 33.3325 78.0871Z" fill="#006DAA"/>
<path d="M36.7206 72.195C30.3093 69.9224 25.0187 65.4725 21.4612 59.3623C18.6855 54.5994 17.2391 49.5371 17.0306 43.8761C16.9263 41.3449 17.0827 39.2765 17.5909 36.5412C17.8515 35.0443 17.9949 34.568 18.2294 34.323C18.464 34.0917 18.5943 34.0373 18.8158 34.1325C19.3762 34.3366 19.3892 34.5544 19.0243 36.5548C18.0991 41.4946 18.2425 45.9445 19.4804 50.7483C20.7705 55.8242 23.2855 60.3557 26.8691 64.098C29.8663 67.2143 33.3847 69.4869 37.307 70.8205C38.128 71.1063 38.8838 71.3921 38.975 71.4737C39.1705 71.637 39.1835 72.2766 38.975 72.4944C38.7144 72.7665 38.1019 72.6849 36.7206 72.195Z" fill="#006DAA"/>
<path d="M45.1257 67.9505C40.1869 67.0115 37.1767 65.4602 34.1143 62.2486C30.4135 58.3974 28.2112 53.8387 27.3903 48.3001C27.1687 46.8304 27.1687 43.02 27.3903 41.4279C28.6022 32.6641 34.0622 25.4109 42.5194 21.2876C44.8911 20.1445 47.7449 19.2599 50.7942 18.7428C52.4361 18.4706 57.3749 18.5115 59.1341 18.8108C65.0763 19.8315 70.0803 22.3082 74.4197 26.3635C75.6446 27.4929 75.827 27.7923 75.6446 28.2278C75.5664 28.4183 75.3449 28.5952 75.1625 28.6497C74.8888 28.7177 74.7064 28.6088 74.0939 28.0373C71.6701 25.7647 69.6633 24.3086 67.2004 23.0158C61.3885 19.9812 54.5602 19.2191 47.9925 20.8521C42.4543 22.2401 36.9812 25.8191 33.4888 30.3371C28.5109 36.7738 27.2209 45.6328 30.1398 53.3351C30.8435 55.2131 31.8209 57.0366 32.9546 58.6424C36.6424 63.8272 41.6333 66.5488 47.4843 66.5488C52.3189 66.5624 56.9188 64.5212 60.1766 60.9422C65.4152 55.1723 65.2588 46.0955 59.8248 40.5978C58.2089 38.9512 56.4888 37.9986 54.3126 37.5359C50.69 36.7602 47.1976 37.8489 44.5262 40.6114C43.5489 41.6184 43.2361 42.0402 42.7931 42.9928C42.0764 44.5306 41.8288 45.8097 41.907 47.5516C42.1415 52.7092 46.4548 56.4787 50.7681 55.3083C52.5795 54.8184 54.3256 53.4168 54.9772 51.9199C56.163 49.2254 55.2118 46.0819 52.8531 44.8708C52.1104 44.4897 51.8497 44.4353 51.0679 44.4353C50.0254 44.4489 49.2044 44.7619 48.4095 45.4423C48.1489 45.6601 47.8231 45.8506 47.7058 45.8506C47.4191 45.8506 46.95 45.3743 46.95 45.0885C46.95 44.4489 48.9698 43.1969 50.299 42.9928C53.1528 42.5846 55.6679 44.4081 56.6582 47.606C57.0101 48.7083 56.9579 50.559 56.554 51.7838C55.2509 55.7982 50.7812 57.9211 46.6112 56.5331C43.9659 55.6622 41.6854 53.0358 40.7993 49.865C40.5517 48.9533 40.4996 48.477 40.5126 46.9392C40.5126 45.2518 40.5517 45.0069 40.9296 43.8501C41.6724 41.5639 42.7931 39.9446 44.6044 38.5157C46.52 37.0052 48.4225 36.2159 50.8333 35.9029C54.7817 35.413 58.9778 37.1549 61.6492 40.4072C65.2848 44.8436 66.3664 50.6815 64.5812 56.1929C62.7829 61.7587 57.6225 66.2358 51.3806 67.6919C50.4293 67.9097 45.9206 68.1002 45.1257 67.9505Z" fill="#006DAA"/>
<path d="M82.7858 49.1424C82.3949 49.0199 82.2646 48.6525 82.2646 47.7135C82.2646 47.1964 82.1994 46.2166 82.1213 45.509C81.9518 44.0393 82.0561 43.6719 82.6295 43.6719C83.1768 43.6719 83.3332 43.8624 83.4504 44.57C83.6589 45.8764 83.7371 48.5028 83.5938 48.8022C83.4374 49.1016 83.0986 49.2513 82.7858 49.1424Z" fill="#006DAA"/>
<path d="M81.0788 39.4539C80.9615 39.3859 80.6487 38.7463 80.3881 38.0523C80.1275 37.3583 79.6193 36.2016 79.2674 35.4939C78.9026 34.7999 78.4595 33.8881 78.251 33.4935L77.8992 32.7587L78.251 32.4457C78.9417 31.8197 79.3196 32.2279 80.7009 35.1673C81.5088 36.9092 82.1343 38.515 82.1343 38.9096C82.1343 39.1818 81.7303 39.59 81.4697 39.59C81.3655 39.59 81.196 39.522 81.0788 39.4539Z" fill="#006DAA"/>
<path d="M21.0313 28.8536C20.6273 28.4317 20.6924 28.1731 21.4222 27.0709C22.6211 25.2474 25.2924 22.1719 25.6703 22.1719C25.7355 22.1719 25.9179 22.2671 26.0743 22.3896C26.6086 22.7842 26.4522 23.1925 25.2403 24.5261C24.3021 25.5603 23.1293 27.0845 22.0607 28.663C21.761 29.0985 21.344 29.1802 21.0313 28.8536Z" fill="#006DAA"/>
<path d="M29.0191 20.198C28.8237 19.885 28.8237 19.8305 29.0061 19.5311C29.3449 19.0004 32.9936 17 33.6191 17C33.997 17 34.3228 17.5171 34.2185 17.939C34.1664 18.1703 33.8406 18.4017 32.9415 18.8371C32.2769 19.1501 31.3256 19.6672 30.8174 19.9802C29.7489 20.6334 29.3188 20.6879 29.0191 20.198Z" fill="#006DAA"/>
</g>
<defs>
<clipPath id="clip0_1419_7123">
<rect width="66.6667" height="66.6666" fill="white" transform="matrix(1 0 0 -1 17 83.666)"/>
</clipPath>
</defs>
</svg>
