<?xml version="1.0" encoding="UTF-8" standalone="no"?>
<svg
   width="20.655991"
   height="31.496202"
   viewBox="0 0 20.655991 31.496202"
   fill="none"
   version="1.1"
   id="svg1015"
   sodipodi:docname="ic_Lokacija.svg"
   xmlns:inkscape="http://www.inkscape.org/namespaces/inkscape"
   xmlns:sodipodi="http://sodipodi.sourceforge.net/DTD/sodipodi-0.dtd"
   xmlns="http://www.w3.org/2000/svg"
   xmlns:svg="http://www.w3.org/2000/svg">
  <defs
     id="defs1019">
    <clipPath
       clipPathUnits="userSpaceOnUse"
       id="clipPath1503">
      <rect
         style="fill:#000000;fill-opacity:0.160622;stroke-width:0.863991"
         id="rect1505"
         width="20.680855"
         height="31.519535"
         x="8.3095779"
         y="2.7813568" />
    </clipPath>
    <clipPath
       clipPathUnits="userSpaceOnUse"
       id="clipPath1507">
      <rect
         style="fill:#000000;fill-opacity:0.160622;stroke-width:0.863991"
         id="rect1509"
         width="20.680855"
         height="31.519535"
         x="8.3095779"
         y="2.7813568" />
    </clipPath>
  </defs>
  <sodipodi:namedview
     id="namedview1017"
     pagecolor="#ffffff"
     bordercolor="#000000"
     borderopacity="0.25"
     inkscape:showpageshadow="2"
     inkscape:pageopacity="0.0"
     inkscape:pagecheckerboard="0"
     inkscape:deskcolor="#d1d1d1"
     showgrid="false" />
  <path
     d="m 18.64,3.92974 c 2.4522,0 4.7576,0.93619 6.4916,2.63615 1.734,1.69996 2.6889,3.96021 2.6889,6.36431 0,3.0179 -1.728,7.5327 -4.9969,13.0563 -1.5979,2.6998 -3.2111,5.037 -4.1837,6.3939 C 17.6703,31.028 16.0642,28.7009 14.4684,26.0066 11.1916,20.4738 9.45957,15.9521 9.45957,12.9302 c 0,-2.4041 0.95493,-4.66435 2.68883,-6.36431 1.734,-1.69996 4.0394,-2.63615 6.4916,-2.63615 z m 0,-1.12505 c -5.704,0 -10.32799,4.53334 -10.32799,10.12551 0,7.8754 10.32799,21.376 10.32799,21.376 0,0 10.328,-13.5006 10.328,-21.376 0,-5.59217 -4.624,-10.12551 -10.328,-10.12551 z"
     fill="#ff7d00"
     id="path1011"
     clip-path="url(#clipPath1507)"
     transform="translate(-8.31201,-2.80469)" />
  <path
     d="m 18.64,8.42969 c -2.5318,0 -4.5902,2.01811 -4.5902,4.50021 0,2.4822 2.0584,4.5002 4.5902,4.5002 2.5318,0 4.5903,-2.018 4.5903,-4.5002 0,-2.4821 -2.0585,-4.50021 -4.5903,-4.50021 z m 0,7.79801 c -1.8576,0 -3.3637,-1.4766 -3.3637,-3.2978 0,-1.8212 1.5061,-3.29781 3.3637,-3.29781 1.8576,0 3.3638,1.47661 3.3638,3.29781 0,1.8212 -1.5062,3.2978 -3.3638,3.2978 z"
     fill="#ff7d00"
     id="path1013"
     clip-path="url(#clipPath1503)"
     transform="translate(-8.31201,-2.80469)" />
</svg>
