<?xml version="1.0" encoding="UTF-8" standalone="no"?>
<svg
   width="37.97068"
   height="30.54529"
   viewBox="0 0 37.97068 30.54529"
   fill="none"
   version="1.1"
   id="svg1610"
   xmlns="http://www.w3.org/2000/svg"
   xmlns:svg="http://www.w3.org/2000/svg">
  <g
     clip-path="url(#clip0_12_13238)"
     id="g1603"
     transform="translate(-2.65332,-7.28351)">
    <path
       d="M 16.0273,7.91504 H 9.53015 c -1.39804,0 -2.53137,1.13333 -2.53137,2.53136 v 6.4972 c 0,1.398 1.13333,2.5314 2.53137,2.5314 h 6.49715 c 1.3981,0 2.5314,-1.1334 2.5314,-2.5314 v -6.4972 c 0,-1.39803 -1.1333,-2.53136 -2.5314,-2.53136 z"
       fill="#ffe39a"
       id="path1589" />
    <path
       d="m 14.7617,15.2568 v -3.122 c 0,-0.233 -0.1889,-0.4219 -0.4219,-0.4219 h -3.122 c -0.233,0 -0.4219,0.1889 -0.4219,0.4219 v 3.122 c 0,0.233 0.1889,0.4219 0.4219,0.4219 h 3.122 c 0.233,0 0.4219,-0.1889 0.4219,-0.4219 z"
       fill="#8b8893"
       id="path1591" />
    <path
       d="m 33.7471,7.91504 h -6.4972 c -1.3981,0 -2.5314,1.13333 -2.5314,2.53136 v 6.4972 c 0,1.398 1.1333,2.5314 2.5314,2.5314 h 6.4972 c 1.398,0 2.5313,-1.1334 2.5313,-2.5314 v -6.4972 c 0,-1.39803 -1.1333,-2.53136 -2.5313,-2.53136 z"
       fill="#ffe39a"
       id="path1593" />
    <path
       d="m 32.4814,15.2568 v -3.122 c 0,-0.233 -0.1888,-0.4219 -0.4219,-0.4219 h -3.122 c -0.233,0 -0.4219,0.1889 -0.4219,0.4219 v 3.122 c 0,0.233 0.1889,0.4219 0.4219,0.4219 h 3.122 c 0.2331,0 0.4219,-0.1889 0.4219,-0.4219 z"
       fill="#8b8893"
       id="path1595" />
    <path
       d="M 16.0273,25.6348 H 9.53015 c -1.39804,0 -2.53137,1.1333 -2.53137,2.5313 v 6.4972 c 0,1.3981 1.13333,2.5314 2.53137,2.5314 h 6.49715 c 1.3981,0 2.5314,-1.1333 2.5314,-2.5314 v -6.4972 c 0,-1.398 -1.1333,-2.5313 -2.5314,-2.5313 z"
       fill="#ffe39a"
       id="path1597" />
    <path
       d="M 39.9911,23.1876 H 3.28616 c -0.16784,0 -0.3288,-0.0667 -0.44748,-0.1854 -0.11869,-0.1187 -0.18536,-0.2796 -0.18536,-0.4475 0,-0.1678 0.06667,-0.3288 0.18536,-0.4475 0.11868,-0.1187 0.27964,-0.1853 0.44748,-0.1853 H 39.9911 c 0.1678,0 0.3288,0.0666 0.4475,0.1853 0.1187,0.1187 0.1853,0.2797 0.1853,0.4475 0,0.1679 -0.0666,0.3288 -0.1853,0.4475 -0.1187,0.1187 -0.2797,0.1854 -0.4475,0.1854 z"
       fill="#8b8893"
       id="path1599" />
    <path
       d="m 6.36603,10.4477 v 6.4972 c 9.5e-4,0.8389 0.33462,1.6432 0.92782,2.2364 0.59321,0.5932 1.39749,0.9269 2.2364,0.9278 h 6.49715 c 0.839,-9e-4 1.6432,-0.3346 2.2364,-0.9278 0.5932,-0.5932 0.9269,-1.3975 0.9279,-2.2364 V 10.4477 C 19.1907,9.60882 18.857,8.80454 18.2638,8.21133 17.6706,7.61813 16.8664,7.28446 16.0274,7.28351 H 9.53025 C 8.69134,7.28446 7.88706,7.61813 7.29385,8.21133 6.70065,8.80454 6.36698,9.60882 6.36603,10.4477 Z m 1.26569,0 C 7.63228,9.94438 7.83249,9.46181 8.18841,9.10589 8.54433,8.74997 9.0269,8.54976 9.53025,8.5492 h 6.49715 c 0.5034,5.6e-4 0.986,0.20077 1.3419,0.55669 0.3559,0.35592 0.5561,0.83849 0.5567,1.34181 v 6.4972 c -6e-4,0.5034 -0.2008,0.9859 -0.5567,1.3419 -0.3559,0.3559 -0.8385,0.5561 -1.3419,0.5567 H 9.53025 C 9.0269,18.8429 8.54433,18.6427 8.18841,18.2868 7.83249,17.9308 7.63228,17.4483 7.63172,16.9449 Z m 3.58608,5.2315 h 3.1221 c 0.1119,0 0.2192,-0.0444 0.2983,-0.1235 0.0791,-0.0792 0.1236,-0.1865 0.1236,-0.2984 v -3.122 c 0,-0.1119 -0.0445,-0.2192 -0.1236,-0.2983 -0.0791,-0.0791 -0.1864,-0.1236 -0.2983,-0.1236 h -3.1221 c -0.1119,0 -0.2192,0.0445 -0.2983,0.1236 -0.0791,0.0791 -0.1236,0.1864 -0.1236,0.2983 v 3.122 c 0,0.1119 0.0445,0.2192 0.1236,0.2984 0.0791,0.0791 0.1864,0.1235 0.2983,0.1235 z m 16.0321,4.4299 h 6.4972 c 0.8389,-9e-4 1.6432,-0.3346 2.2364,-0.9278 0.5932,-0.5932 0.9268,-1.3975 0.9278,-2.2364 V 10.4477 C 36.9103,9.60882 36.5767,8.80454 35.9835,8.21133 35.3903,7.61813 34.586,7.28446 33.7471,7.28351 h -6.4972 c -0.8389,9.5e-4 -1.6432,0.33462 -2.2364,0.92782 -0.5932,0.59321 -0.9269,1.39749 -0.9278,2.23637 v 6.4972 c 9e-4,0.8389 0.3346,1.6432 0.9278,2.2364 0.5932,0.5932 1.3975,0.9269 2.2364,0.9278 z m -1.8986,-9.6614 c 6e-4,-0.50332 0.2008,-0.98589 0.5567,-1.34181 0.356,-0.35592 0.8385,-0.55613 1.3419,-0.55669 h 6.4972 c 0.5033,5.6e-4 0.9859,0.20077 1.3418,0.55669 0.3559,0.35592 0.5561,0.83849 0.5567,1.34181 v 6.4972 c -6e-4,0.5034 -0.2008,0.9859 -0.5567,1.3419 -0.3559,0.3559 -0.8385,0.5561 -1.3418,0.5567 h -6.4972 c -0.5034,-6e-4 -0.9859,-0.2008 -1.3419,-0.5567 -0.3559,-0.356 -0.5561,-0.8385 -0.5567,-1.3419 z m 3.5862,5.2315 h 3.122 c 0.1119,0 0.2192,-0.0444 0.2983,-0.1235 0.0791,-0.0792 0.1236,-0.1865 0.1236,-0.2984 v -3.122 c 0,-0.1119 -0.0445,-0.2192 -0.1236,-0.2983 -0.0791,-0.0791 -0.1864,-0.1236 -0.2983,-0.1236 h -3.122 c -0.1119,0 -0.2193,0.0445 -0.2984,0.1236 -0.0791,0.0791 -0.1235,0.1864 -0.1235,0.2983 v 3.122 c 0,0.1119 0.0444,0.2192 0.1235,0.2984 0.0791,0.0791 0.1865,0.1235 0.2984,0.1235 z m 2.911,10.5896 v -1.2657 h -1.2657 v 1.2657 z m 1.2657,6.3285 h 1.2657 v -1.2657 h -1.2657 z m -2.5314,-1.2657 h -1.2656 v 1.2657 h 1.2656 z m -1.2656,-3.7971 h 1.2656 v -1.2657 h -1.2656 z m -8.3114,-8.691 v 1.2656 h 1.2657 v -1.2656 z m 15.9055,18.268 v -3.797 c 0,-0.1679 -0.0667,-0.3288 -0.1854,-0.4475 -0.1187,-0.1187 -0.2796,-0.1854 -0.4475,-0.1854 h -1.0125 c -0.1679,0 -0.3288,0.0667 -0.4475,0.1854 -0.1187,0.1187 -0.1854,0.2796 -0.1854,0.4475 0,0.1678 0.0667,0.3288 0.1854,0.4475 0.1187,0.1186 0.2796,0.1853 0.4475,0.1853 h 0.3797 v 2.5314 h -8.227 c -0.1678,0 -0.3288,0.0667 -0.4475,0.1854 -0.1186,0.1186 -0.1853,0.2796 -0.1853,0.4474 0,0.1679 0.0667,0.3288 0.1853,0.4475 0.1187,0.1187 0.2797,0.1854 0.4475,0.1854 h 8.8598 c 0.1679,0 0.3288,-0.0667 0.4475,-0.1854 0.1187,-0.1187 0.1854,-0.2796 0.1854,-0.4475 z m -9.6614,-6.9612 h 6.4972 c 0.1678,0 0.3288,-0.0667 0.4475,-0.1854 0.1186,-0.1187 0.1853,-0.2796 0.1853,-0.4475 0,-0.1678 -0.0667,-0.3288 -0.1853,-0.4475 -0.1187,-0.1187 -0.2797,-0.1853 -0.4475,-0.1853 h -6.4972 c -0.1679,0 -0.3288,0.0666 -0.4475,0.1853 -0.1187,0.1187 -0.1854,0.2797 -0.1854,0.4475 0,0.1679 0.0667,0.3288 0.1854,0.4475 0.1187,0.1187 0.2796,0.1854 0.4475,0.1854 z m 2.5313,5.0627 h 2.7002 c 0.1678,0 0.3288,-0.0667 0.4475,-0.1853 0.1186,-0.1187 0.1853,-0.2797 0.1853,-0.4475 0,-0.1679 -0.0667,-0.3288 -0.1853,-0.4475 -0.1187,-0.1187 -0.2797,-0.1854 -0.4475,-0.1854 h -2.7002 c -0.1678,0 -0.3288,0.0667 -0.4474,0.1854 -0.1187,0.1187 -0.1854,0.2796 -0.1854,0.4475 0,0.1678 0.0667,0.3288 0.1854,0.4475 0.1186,0.1186 0.2796,0.1853 0.4474,0.1853 z m -15.4413,-5.78 h -3.1221 c -0.1119,0 -0.2192,0.0445 -0.2983,0.1236 -0.0791,0.0791 -0.1236,0.1864 -0.1236,0.2983 v 3.1221 c 0,0.1119 0.0445,0.2192 0.1236,0.2983 0.0791,0.0791 0.1864,0.1236 0.2983,0.1236 h 3.1221 c 0.1119,0 0.2192,-0.0445 0.2983,-0.1236 0.0791,-0.0791 0.1236,-0.1864 0.1236,-0.2983 v -3.1221 c 0,-0.1119 -0.0445,-0.2192 -0.1236,-0.2983 -0.0791,-0.0791 -0.1864,-0.1236 -0.2983,-0.1236 z m 1.6875,-4.4299 H 9.53025 c -0.83891,0.001 -1.64319,0.3347 -2.2364,0.9279 -0.5932,0.5932 -0.92687,1.3974 -0.92782,2.2364 v 6.4971 c 9.5e-4,0.839 0.33462,1.6432 0.92782,2.2364 0.59321,0.5932 1.39749,0.9269 2.2364,0.9279 h 6.49715 c 0.839,-10e-4 1.6432,-0.3347 2.2364,-0.9279 0.5932,-0.5932 0.9269,-1.3974 0.9279,-2.2364 v -6.4971 c -0.001,-0.839 -0.3347,-1.6432 -0.9279,-2.2364 -0.5932,-0.5932 -1.3974,-0.9269 -2.2364,-0.9279 z m 1.8986,9.6614 c -6e-4,0.5034 -0.2008,0.986 -0.5567,1.3419 -0.3559,0.3559 -0.8385,0.5561 -1.3419,0.5567 H 9.53025 C 9.0269,36.5625 8.54433,36.3623 8.18841,36.0064 7.83249,35.6505 7.63228,35.1679 7.63172,34.6645 v -6.4971 c 5.6e-4,-0.5034 0.20077,-0.986 0.55669,-1.3419 0.35592,-0.3559 0.83849,-0.5561 1.34184,-0.5567 h 6.49715 c 0.5034,6e-4 0.986,0.2008 1.3419,0.5567 0.3559,0.3559 0.5561,0.8385 0.5567,1.3419 z m 3.7127,-5.8643 c -0.1679,0 -0.3288,0.0667 -0.4475,0.1853 -0.1187,0.1187 -0.1854,0.2797 -0.1854,0.4475 v 7.7629 c 0,0.1679 0.0667,0.3288 0.1854,0.4475 0.1187,0.1187 0.2796,0.1854 0.4475,0.1854 0.1678,0 0.3288,-0.0667 0.4474,-0.1854 0.1187,-0.1187 0.1854,-0.2796 0.1854,-0.4475 V 29.433 c 0,-0.1678 -0.0667,-0.3288 -0.1854,-0.4475 -0.1186,-0.1186 -0.2796,-0.1853 -0.4474,-0.1853 z m -0.6329,-2.5314 h 1.2657 v -1.2657 h -1.2657 z m 3.0799,11.4756 h 1.2656 v -1.2657 h -1.2656 z m 0.6328,-12.7413 c -0.1678,0 -0.3288,0.0667 -0.4475,0.1854 -0.1187,0.1187 -0.1853,0.2796 -0.1853,0.4475 v 7.7629 c 0,0.1678 0.0666,0.3288 0.1853,0.4474 0.1187,0.1187 0.2797,0.1854 0.4475,0.1854 0.1678,0 0.3288,-0.0667 0.4475,-0.1854 0.1187,-0.1186 0.1853,-0.2796 0.1853,-0.4474 V 25.636 c 0,-0.1679 -0.0666,-0.3288 -0.1853,-0.4475 -0.1187,-0.1187 -0.2797,-0.1854 -0.4475,-0.1854 z m 2.0673,6.8769 v 2.7002 c 0,0.1678 0.0667,0.3288 0.1853,0.4475 0.1187,0.1186 0.2797,0.1853 0.4475,0.1853 0.1679,0 0.3288,-0.0667 0.4475,-0.1853 0.1187,-0.1187 0.1854,-0.2797 0.1854,-0.4475 V 31.88 c 0,-0.1678 -0.0667,-0.3288 -0.1854,-0.4475 -0.1187,-0.1186 -0.2796,-0.1853 -0.4475,-0.1853 -0.1678,0 -0.3288,0.0667 -0.4475,0.1853 -0.1186,0.1187 -0.1853,0.2797 -0.1853,0.4475 z m 9.4926,-1.6454 c 0.1679,0 0.3288,-0.0666 0.4475,-0.1853 0.1187,-0.1187 0.1854,-0.2797 0.1854,-0.4475 V 25.636 c 0,-0.1679 -0.0667,-0.3288 -0.1854,-0.4475 -0.1187,-0.1187 -0.2796,-0.1854 -0.4475,-0.1854 h -2.4499 c -0.1679,0 -0.3288,0.0667 -0.4475,0.1854 -0.1187,0.1187 -0.1854,0.2796 -0.1854,0.4475 0,0.1678 0.0667,0.3288 0.1854,0.4475 0.1187,0.1186 0.2796,0.1853 0.4475,0.1853 h 1.8171 v 3.333 c 0,0.1678 0.0667,0.3288 0.1854,0.4475 0.1186,0.1187 0.2796,0.1853 0.4474,0.1853 z M 20.1833,8.5492 h 0.8225 v 8.3957 c 0,0.1679 0.0667,0.3288 0.1854,0.4475 0.1187,0.1187 0.2796,0.1854 0.4475,0.1854 0.1678,0 0.3288,-0.0667 0.4474,-0.1854 0.1187,-0.1187 0.1854,-0.2796 0.1854,-0.4475 V 7.91636 c 0,-0.16784 -0.0667,-0.32881 -0.1854,-0.44749 C 21.9675,7.35019 21.8065,7.28351 21.6387,7.28351 h -1.4554 c -0.1679,0 -0.3288,0.06668 -0.4475,0.18536 -0.1187,0.11868 -0.1854,0.27965 -0.1854,0.44749 0,0.16784 0.0667,0.3288 0.1854,0.44748 0.1187,0.11869 0.2796,0.18536 0.4475,0.18536 z M 40.624,22.5561 c 0,-0.1678 -0.0667,-0.3288 -0.1854,-0.4474 C 40.3199,21.99 40.159,21.9233 39.9911,21.9233 H 3.28619 c -0.16784,0 -0.3288,0.0667 -0.44748,0.1854 -0.11868,0.1186 -0.18536,0.2796 -0.18536,0.4474 0,0.1679 0.06668,0.3288 0.18536,0.4475 0.11868,0.1187 0.27964,0.1854 0.44748,0.1854 H 21.6387 39.9911 c 0.1679,0 0.3288,-0.0667 0.4475,-0.1854 0.1187,-0.1187 0.1854,-0.2796 0.1854,-0.4475 z"
       fill="#ff7d00"
       id="path1601" />
  </g>
  <defs
     id="defs1608">
    <clipPath
       id="clip0_12_13238">
      <rect
         width="43.202099"
         height="43.202099"
         fill="#ffffff"
         transform="translate(0.0375977,0.954102)"
         id="rect1605"
         x="0"
         y="0" />
    </clipPath>
  </defs>
</svg>
