<svg width="59" height="58" viewBox="0 0 59 58" fill="none" xmlns="http://www.w3.org/2000/svg">
<g filter="url(#filter0_d_1426_59)">
<circle cx="27.3613" cy="27.5557" r="27.3613" fill="white"/>
</g>
<path fill-rule="evenodd" clip-rule="evenodd" d="M33.2167 27.7122C34.1154 26.849 34.8339 25.7965 35.3262 24.6222C35.8185 23.4479 36.0737 22.1777 36.0756 20.8929C36.0756 18.4303 35.1516 16.0685 33.507 14.3271C31.8624 12.5857 29.6318 11.6074 27.3059 11.6074C24.98 11.6074 22.7494 12.5857 21.1048 14.3271C19.4602 16.0685 18.5362 18.4303 18.5362 20.8929C18.5362 23.6006 19.6482 26.0148 21.3951 27.7122C15.6107 30.1896 11.5205 36.1658 11.5205 43.1782H43.0913C43.0913 36.1658 39.0011 30.1896 33.2167 27.7122ZM20.2902 20.8929C20.2895 19.613 20.6011 18.3545 21.1949 17.2396C21.7887 16.1248 22.6445 15.1912 23.6793 14.5296C24.7141 13.8679 25.8929 13.5006 27.1012 13.4633C28.3095 13.426 29.5065 13.7198 30.576 14.3164C31.6455 14.913 32.5513 15.7921 33.2055 16.8684C33.8597 17.9448 34.2401 19.1818 34.3099 20.4596C34.3797 21.7375 34.1365 23.0127 33.6039 24.1617C33.0712 25.3107 32.2672 26.2945 31.2698 27.0177C31.1821 27.0808 31.0839 27.1291 30.9927 27.1885C30.7383 27.3557 30.4753 27.5117 30.1999 27.6435C30.0648 27.7085 29.9228 27.7642 29.7825 27.8199C29.5194 27.9258 29.2493 28.0149 28.9721 28.0855C28.8406 28.1189 28.7108 28.1579 28.5757 28.1839C28.1636 28.2657 27.7409 28.3214 27.3059 28.3214C26.8709 28.3214 26.4482 28.2657 26.0343 28.1858C25.8992 28.1598 25.7695 28.1208 25.6379 28.0874C25.3632 28.0154 25.0926 27.9268 24.8276 27.8218C24.6873 27.7661 24.547 27.7104 24.4102 27.6454C24.1368 27.5122 23.872 27.3602 23.6174 27.1904C23.5262 27.131 23.428 27.0827 23.3403 27.0195C22.3999 26.3377 21.6307 25.4234 21.0992 24.3559C20.5678 23.2883 20.2901 22.0997 20.2902 20.8929ZM13.3955 41.3211C13.7332 38.4978 14.8294 35.8366 16.5537 33.6536C18.2781 31.4707 20.5581 29.8578 23.1228 29.0066C24.3716 29.729 25.7817 30.1785 27.3059 30.1785C28.8301 30.1785 30.2402 29.729 31.489 29.0066C34.0536 29.858 36.3335 31.4709 38.0578 33.6538C39.7821 35.8368 40.8784 38.4979 41.2163 41.3211H13.3955Z" fill="#FF7D00"/>
<defs>
<filter id="filter0_d_1426_59" x="0" y="0.194336" width="58.7227" height="57.7227" filterUnits="userSpaceOnUse" color-interpolation-filters="sRGB">
<feFlood flood-opacity="0" result="BackgroundImageFix"/>
<feColorMatrix in="SourceAlpha" type="matrix" values="0 0 0 0 0 0 0 0 0 0 0 0 0 0 0 0 0 0 127 0" result="hardAlpha"/>
<feMorphology radius="4" operator="erode" in="SourceAlpha" result="effect1_dropShadow_1426_59"/>
<feOffset dx="4" dy="3"/>
<feGaussianBlur stdDeviation="2"/>
<feComposite in2="hardAlpha" operator="out"/>
<feColorMatrix type="matrix" values="0 0 0 0 0 0 0 0 0 0 0 0 0 0 0 0 0 0 0.25 0"/>
<feBlend mode="normal" in2="BackgroundImageFix" result="effect1_dropShadow_1426_59"/>
<feBlend mode="normal" in="SourceGraphic" in2="effect1_dropShadow_1426_59" result="shape"/>
</filter>
</defs>
</svg>
