<svg width="33" height="33" viewBox="0 0 33 33" fill="none" xmlns="http://www.w3.org/2000/svg">
<path fill-rule="evenodd" clip-rule="evenodd" d="M22.2167 16.7122C23.1154 15.849 23.8339 14.7965 24.3262 13.6222C24.8185 12.4479 25.0737 11.1777 25.0756 9.89295C25.0756 7.43027 24.1516 5.06846 22.507 3.32709C20.8624 1.58572 18.6318 0.607422 16.3059 0.607422C13.98 0.607422 11.7494 1.58572 10.1048 3.32709C8.46018 5.06846 7.53624 7.43027 7.53624 9.89295C7.53624 12.6006 8.64823 15.0148 10.3951 16.7122C4.61068 19.1896 0.520508 25.1658 0.520508 32.1782H32.0913C32.0913 25.1658 28.0011 19.1896 22.2167 16.7122ZM9.29017 9.89295C9.28946 8.61299 9.60111 7.35455 10.1949 6.23965C10.7887 5.12475 11.6445 4.19122 12.6793 3.52959C13.7141 2.86795 14.8929 2.50065 16.1012 2.4633C17.3095 2.42595 18.5065 2.71983 19.576 3.31643C20.6455 3.91303 21.5513 4.79211 22.2055 5.86843C22.8597 6.94476 23.2401 8.1818 23.3099 9.45963C23.3797 10.7375 23.1365 12.0127 22.6039 13.1617C22.0712 14.3107 21.2672 15.2945 20.2698 16.0177C20.1821 16.0808 20.0839 16.1291 19.9927 16.1885C19.7383 16.3557 19.4753 16.5117 19.1999 16.6435C19.0648 16.7085 18.9228 16.7642 18.7825 16.8199C18.5194 16.9258 18.2493 17.0149 17.9721 17.0855C17.8406 17.1189 17.7108 17.1579 17.5757 17.1839C17.1636 17.2657 16.7409 17.3214 16.3059 17.3214C15.8709 17.3214 15.4482 17.2657 15.0343 17.1858C14.8992 17.1598 14.7695 17.1208 14.6379 17.0874C14.3632 17.0154 14.0926 16.9268 13.8276 16.8218C13.6873 16.7661 13.547 16.7104 13.4102 16.6454C13.1368 16.5122 12.872 16.3602 12.6174 16.1904C12.5262 16.131 12.428 16.0827 12.3403 16.0195C11.3999 15.3377 10.6307 14.4234 10.0992 13.3559C9.56776 12.2883 9.29006 11.0997 9.29017 9.89295ZM2.39546 30.3211C2.73321 27.4978 3.82939 24.8366 5.55373 22.6536C7.27807 20.4707 9.55807 18.8578 12.1228 18.0066C13.3716 18.729 14.7817 19.1785 16.3059 19.1785C17.8301 19.1785 19.2402 18.729 20.489 18.0066C23.0536 18.858 25.3335 20.4709 27.0578 22.6538C28.7821 24.8368 29.8784 27.4979 30.2163 30.3211H2.39546Z" fill="#FF7D00"/>
</svg>
