<svg width="59" height="58" viewBox="0 0 59 58" fill="none" xmlns="http://www.w3.org/2000/svg">
<g filter="url(#filter0_d_1426_151)">
<circle cx="27.6405" cy="27.5568" r="27.3595" fill="white"/>
</g>
<g clip-path="url(#clip0_1426_151)">
<path d="M22.0299 12.918H15.5332C14.1352 12.918 13.002 14.0512 13.002 15.4492V21.9459C13.002 23.3439 14.1352 24.4771 15.5332 24.4771H22.0299C23.4279 24.4771 24.5611 23.3439 24.5611 21.9459V15.4492C24.5611 14.0512 23.4279 12.918 22.0299 12.918Z" fill="#FFE39A"/>
<path d="M20.7642 20.2585V17.1367C20.7642 16.9037 20.5753 16.7148 20.3423 16.7148H17.2205C16.9875 16.7148 16.7986 16.9037 16.7986 17.1367V20.2585C16.7986 20.4915 16.9875 20.6804 17.2205 20.6804H20.3423C20.5753 20.6804 20.7642 20.4915 20.7642 20.2585Z" fill="#8B8893"/>
<path d="M39.7482 12.918H33.2514C31.8535 12.918 30.7202 14.0512 30.7202 15.4492V21.9459C30.7202 23.3439 31.8535 24.4771 33.2514 24.4771H39.7482C41.1461 24.4771 42.2794 23.3439 42.2794 21.9459V15.4492C42.2794 14.0512 41.1461 12.918 39.7482 12.918Z" fill="#FFE39A"/>
<path d="M38.4827 20.2585V17.1367C38.4827 16.9037 38.2938 16.7148 38.0608 16.7148H34.939C34.706 16.7148 34.5171 16.9037 34.5171 17.1367V20.2585C34.5171 20.4915 34.706 20.6804 34.939 20.6804H38.0608C38.2938 20.6804 38.4827 20.4915 38.4827 20.2585Z" fill="#8B8893"/>
<path d="M22.0299 30.6367H15.5332C14.1352 30.6367 13.002 31.77 13.002 33.1679V39.6647C13.002 41.0626 14.1352 42.1959 15.5332 42.1959H22.0299C23.4279 42.1959 24.5611 41.0626 24.5611 39.6647V33.1679C24.5611 31.77 23.4279 30.6367 22.0299 30.6367Z" fill="#FFE39A"/>
<path d="M45.9918 28.1894H9.2893C9.12147 28.1894 8.96051 28.1228 8.84184 28.0041C8.72316 27.8854 8.65649 27.7245 8.65649 27.5566C8.65649 27.3888 8.72316 27.2278 8.84184 27.1092C8.96051 26.9905 9.12147 26.9238 9.2893 26.9238H45.9918C46.1596 26.9238 46.3206 26.9905 46.4393 27.1092C46.5579 27.2278 46.6246 27.3888 46.6246 27.5566C46.6246 27.7245 46.5579 27.8854 46.4393 28.0041C46.3206 28.1228 46.1596 28.1894 45.9918 28.1894Z" fill="#8B8893"/>
<path d="M12.369 15.4491V21.9458C12.37 22.7847 12.7036 23.5889 13.2968 24.1821C13.89 24.7752 14.6942 25.1089 15.533 25.1098H22.0298C22.8687 25.1089 23.6729 24.7752 24.2661 24.1821C24.8592 23.5889 25.1929 22.7847 25.1938 21.9458V15.4491C25.1929 14.6102 24.8592 13.806 24.2661 13.2128C23.6729 12.6196 22.8687 12.286 22.0298 12.285H15.533C14.6942 12.286 13.89 12.6196 13.2968 13.2128C12.7036 13.806 12.37 14.6102 12.369 15.4491ZM13.6346 15.4491C13.6352 14.9457 13.8354 14.4632 14.1913 14.1073C14.5472 13.7514 15.0297 13.5512 15.533 13.5507H22.0298C22.5331 13.5512 23.0157 13.7514 23.3716 14.1073C23.7275 14.4632 23.9276 14.9457 23.9282 15.4491V21.9458C23.9276 22.4491 23.7275 22.9317 23.3716 23.2876C23.0157 23.6435 22.5331 23.8437 22.0298 23.8442H15.533C15.0297 23.8437 14.5472 23.6435 14.1913 23.2876C13.8354 22.9317 13.6352 22.4491 13.6346 21.9458V15.4491ZM17.2205 20.6802H20.3423C20.4542 20.6802 20.5615 20.6358 20.6406 20.5567C20.7198 20.4775 20.7642 20.3702 20.7642 20.2583V17.1365C20.7642 17.0246 20.7198 16.9173 20.6406 16.8382C20.5615 16.7591 20.4542 16.7147 20.3423 16.7147H17.2205C17.1086 16.7147 17.0013 16.7591 16.9222 16.8382C16.8431 16.9173 16.7986 17.0246 16.7986 17.1365V20.2583C16.7986 20.3702 16.8431 20.4775 16.9222 20.5567C17.0013 20.6358 17.1086 20.6802 17.2205 20.6802ZM33.2515 25.1098H39.7482C40.5871 25.1089 41.3913 24.7752 41.9845 24.1821C42.5777 23.5889 42.9113 22.7847 42.9123 21.9458V15.4491C42.9113 14.6102 42.5777 13.806 41.9845 13.2128C41.3913 12.6196 40.5871 12.286 39.7482 12.285H33.2515C32.4126 12.286 31.6084 12.6196 31.0152 13.2128C30.4221 13.806 30.0884 14.6102 30.0875 15.4491V21.9458C30.0884 22.7847 30.4221 23.5889 31.0152 24.1821C31.6084 24.7752 32.4126 25.1089 33.2515 25.1098ZM31.3531 15.4491C31.3536 14.9457 31.5538 14.4632 31.9097 14.1073C32.2656 13.7514 32.7482 13.5512 33.2515 13.5507H39.7482C40.2516 13.5512 40.7341 13.7514 41.09 14.1073C41.4459 14.4632 41.6461 14.9457 41.6467 15.4491V21.9458C41.6461 22.4491 41.4459 22.9317 41.09 23.2876C40.7341 23.6435 40.2516 23.8437 39.7482 23.8442H33.2515C32.7482 23.8437 32.2656 23.6435 31.9097 23.2876C31.5538 22.9317 31.3536 22.4491 31.3531 21.9458V15.4491ZM34.939 20.6802H38.0608C38.1727 20.6802 38.28 20.6358 38.3591 20.5567C38.4382 20.4775 38.4826 20.3702 38.4826 20.2583V17.1365C38.4826 17.0246 38.4382 16.9173 38.3591 16.8382C38.28 16.7591 38.1727 16.7147 38.0608 16.7147H34.939C34.8271 16.7147 34.7198 16.7591 34.6407 16.8382C34.5615 16.9173 34.5171 17.0246 34.5171 17.1365V20.2583C34.5171 20.3702 34.5615 20.4775 34.6407 20.5567C34.7198 20.6358 34.8271 20.6802 34.939 20.6802ZM37.8498 31.2691V30.0035H36.5842V31.2691H37.8498ZM39.1154 37.5971H40.3811V36.3315H39.1154V37.5971ZM36.5842 36.3315H35.3186V37.5971H36.5842V36.3315ZM35.3186 32.5347H36.5842V31.2691H35.3186V32.5347ZM27.0078 23.8442V25.1098H28.2734V23.8442H27.0078ZM42.9123 42.1111V38.3143C42.9123 38.1465 42.8456 37.9855 42.7269 37.8668C42.6082 37.7482 42.4473 37.6815 42.2795 37.6815H41.267C41.0991 37.6815 40.9382 37.7482 40.8195 37.8668C40.7008 37.9855 40.6342 38.1465 40.6342 38.3143C40.6342 38.4821 40.7008 38.6431 40.8195 38.7617C40.9382 38.8804 41.0991 38.9471 41.267 38.9471H41.6467V41.4783H33.4202C33.2524 41.4783 33.0914 41.545 32.9728 41.6636C32.8541 41.7823 32.7874 41.9433 32.7874 42.1111C32.7874 42.2789 32.8541 42.4399 32.9728 42.5586C33.0914 42.6772 33.2524 42.7439 33.4202 42.7439H42.2795C42.4473 42.7439 42.6082 42.6772 42.7269 42.5586C42.8456 42.4399 42.9123 42.2789 42.9123 42.1111ZM33.2515 35.1503H39.7482C39.9161 35.1503 40.077 35.0836 40.1957 34.9649C40.3144 34.8463 40.3811 34.6853 40.3811 34.5175C40.3811 34.3496 40.3144 34.1887 40.1957 34.07C40.077 33.9513 39.9161 33.8847 39.7482 33.8847H33.2515C33.0837 33.8847 32.9227 33.9513 32.804 34.07C32.6854 34.1887 32.6187 34.3496 32.6187 34.5175C32.6187 34.6853 32.6854 34.8463 32.804 34.9649C32.9227 35.0836 33.0837 35.1503 33.2515 35.1503ZM35.7827 40.2127H38.4826C38.6505 40.2127 38.8114 40.146 38.9301 40.0274C39.0488 39.9087 39.1154 39.7477 39.1154 39.5799C39.1154 39.4121 39.0488 39.2511 38.9301 39.1324C38.8114 39.0138 38.6505 38.9471 38.4826 38.9471H35.7827C35.6149 38.9471 35.4539 39.0138 35.3352 39.1324C35.2166 39.2511 35.1499 39.4121 35.1499 39.5799C35.1499 39.7477 35.2166 39.9087 35.3352 40.0274C35.4539 40.146 35.6149 40.2127 35.7827 40.2127ZM20.3423 34.4331H17.2205C17.1086 34.4331 17.0013 34.4776 16.9222 34.5567C16.8431 34.6358 16.7986 34.7431 16.7986 34.855V37.9768C16.7986 38.0887 16.8431 38.196 16.9222 38.2751C17.0013 38.3542 17.1086 38.3987 17.2205 38.3987H20.3423C20.4542 38.3987 20.5615 38.3542 20.6406 38.2751C20.7198 38.196 20.7642 38.0887 20.7642 37.9768V34.855C20.7642 34.7431 20.7198 34.6358 20.6406 34.5567C20.5615 34.4776 20.4542 34.4331 20.3423 34.4331ZM22.0298 30.0035H15.533C14.6942 30.0044 13.89 30.3381 13.2968 30.9313C12.7036 31.5244 12.37 32.3286 12.369 33.1675V39.6643C12.37 40.5031 12.7036 41.3074 13.2968 41.9005C13.89 42.4937 14.6942 42.8273 15.533 42.8283H22.0298C22.8687 42.8273 23.6729 42.4937 24.2661 41.9005C24.8592 41.3074 25.1929 40.5031 25.1938 39.6643V33.1675C25.1929 32.3286 24.8592 31.5244 24.2661 30.9313C23.6729 30.3381 22.8687 30.0044 22.0298 30.0035ZM23.9282 39.6643C23.9276 40.1676 23.7275 40.6501 23.3716 41.006C23.0157 41.3619 22.5331 41.5621 22.0298 41.5627H15.533C15.0297 41.5621 14.5472 41.3619 14.1913 41.006C13.8354 40.6501 13.6352 40.1676 13.6346 39.6643V33.1675C13.6352 32.6642 13.8354 32.1816 14.1913 31.8257C14.5472 31.4699 15.0297 31.2697 15.533 31.2691H22.0298C22.5331 31.2697 23.0157 31.4699 23.3716 31.8257C23.7275 32.1816 23.9276 32.6642 23.9282 33.1675V39.6643ZM27.6406 33.8003C27.4728 33.8003 27.3119 33.867 27.1932 33.9856C27.0745 34.1043 27.0078 34.2653 27.0078 34.4331V42.1955C27.0078 42.3633 27.0745 42.5243 27.1932 42.6429C27.3119 42.7616 27.4728 42.8283 27.6406 42.8283C27.8085 42.8283 27.9694 42.7616 28.0881 42.6429C28.2068 42.5243 28.2734 42.3633 28.2734 42.1955V34.4331C28.2734 34.2653 28.2068 34.1043 28.0881 33.9856C27.9694 33.867 27.8085 33.8003 27.6406 33.8003ZM27.0078 31.2691H28.2734V30.0035H27.0078V31.2691ZM30.0875 42.7439H31.3531V41.4783H30.0875V42.7439ZM30.7203 30.0035C30.5525 30.0035 30.3915 30.0702 30.2728 30.1888C30.1542 30.3075 30.0875 30.4685 30.0875 30.6363V38.3987C30.0875 38.5665 30.1541 38.7274 30.2728 38.8461C30.3915 38.9648 30.5525 39.0315 30.7203 39.0315C30.8881 39.0315 31.0491 38.9648 31.1677 38.8461C31.2864 38.7274 31.3531 38.5665 31.3531 38.3987V30.6363C31.3531 30.4685 31.2864 30.3075 31.1677 30.1888C31.0491 30.0702 30.8881 30.0035 30.7203 30.0035ZM32.7874 36.8799V39.5799C32.7874 39.7477 32.8541 39.9087 32.9728 40.0274C33.0914 40.146 33.2524 40.2127 33.4202 40.2127C33.5881 40.2127 33.749 40.146 33.8677 40.0274C33.9864 39.9087 34.053 39.7477 34.053 39.5799V36.8799C34.053 36.7121 33.9864 36.5512 33.8677 36.4325C33.749 36.3138 33.5881 36.2471 33.4202 36.2471C33.2524 36.2471 33.0914 36.3138 32.9728 36.4325C32.8541 36.5512 32.7874 36.7121 32.7874 36.8799ZM42.2795 35.2347C42.4473 35.2347 42.6082 35.168 42.7269 35.0493C42.8456 34.9306 42.9123 34.7697 42.9123 34.6019V30.6363C42.9123 30.4685 42.8456 30.3075 42.7269 30.1888C42.6082 30.0702 42.4473 30.0035 42.2795 30.0035H39.8297C39.6618 30.0035 39.5009 30.0702 39.3822 30.1888C39.2635 30.3075 39.1969 30.4685 39.1969 30.6363C39.1969 30.8041 39.2635 30.9651 39.3822 31.0838C39.5009 31.2024 39.6618 31.2691 39.8297 31.2691H41.6467V34.6019C41.6467 34.7697 41.7133 34.9306 41.832 35.0493C41.9507 35.168 42.1116 35.2347 42.2795 35.2347ZM26.1854 13.5507H27.0078V21.9458C27.0078 22.1136 27.0745 22.2746 27.1932 22.3933C27.3119 22.512 27.4728 22.5786 27.6406 22.5786C27.8085 22.5786 27.9694 22.512 28.0881 22.3933C28.2068 22.2746 28.2734 22.1136 28.2734 21.9458V12.9178C28.2734 12.75 28.2068 12.5891 28.0881 12.4704C27.9694 12.3517 27.8085 12.285 27.6406 12.285H26.1854C26.0175 12.285 25.8566 12.3517 25.7379 12.4704C25.6192 12.5891 25.5526 12.75 25.5526 12.9178C25.5526 13.0857 25.6192 13.2466 25.7379 13.3653C25.8566 13.484 26.0175 13.5507 26.1854 13.5507ZM46.6247 27.5567C46.6247 27.3888 46.558 27.2279 46.4394 27.1092C46.3207 26.9905 46.1597 26.9239 45.9919 26.9239H9.2894C9.12157 26.9239 8.96061 26.9905 8.84194 27.1092C8.72327 27.2279 8.6566 27.3888 8.6566 27.5567C8.6566 27.7245 8.72327 27.8854 8.84194 28.0041C8.96061 28.1228 9.12157 28.1895 9.2894 28.1895H45.9919C46.1597 28.1895 46.3207 28.1228 46.4394 28.0041C46.558 27.8854 46.6247 27.7245 46.6247 27.5567Z" fill="#FF7D00"/>
</g>
<defs>
<filter id="filter0_d_1426_151" x="0.281006" y="0.197266" width="58.719" height="57.7188" filterUnits="userSpaceOnUse" color-interpolation-filters="sRGB">
<feFlood flood-opacity="0" result="BackgroundImageFix"/>
<feColorMatrix in="SourceAlpha" type="matrix" values="0 0 0 0 0 0 0 0 0 0 0 0 0 0 0 0 0 0 127 0" result="hardAlpha"/>
<feMorphology radius="4" operator="erode" in="SourceAlpha" result="effect1_dropShadow_1426_151"/>
<feOffset dx="4" dy="3"/>
<feGaussianBlur stdDeviation="2"/>
<feComposite in2="hardAlpha" operator="out"/>
<feColorMatrix type="matrix" values="0 0 0 0 0 0 0 0 0 0 0 0 0 0 0 0 0 0 0.25 0"/>
<feBlend mode="normal" in2="BackgroundImageFix" result="effect1_dropShadow_1426_151"/>
<feBlend mode="normal" in="SourceGraphic" in2="effect1_dropShadow_1426_151" result="shape"/>
</filter>
<clipPath id="clip0_1426_151">
<rect width="43.1993" height="43.1993" fill="white" transform="translate(6.04102 5.95703)"/>
</clipPath>
</defs>
</svg>
