<?xml version="1.0" encoding="UTF-8" standalone="no"?>
<svg
   width="20"
   height="18.334"
   viewBox="0 0 20 18.334"
   fill="none"
   version="1.1"
   id="svg11989"
   sodipodi:docname="proslekupnje.svg"
   xmlns:inkscape="http://www.inkscape.org/namespaces/inkscape"
   xmlns:sodipodi="http://sodipodi.sourceforge.net/DTD/sodipodi-0.dtd"
   xmlns="http://www.w3.org/2000/svg"
   xmlns:svg="http://www.w3.org/2000/svg">
  <defs
     id="defs11993" />
  <sodipodi:namedview
     id="namedview11991"
     pagecolor="#ffffff"
     bordercolor="#000000"
     borderopacity="0.25"
     inkscape:showpageshadow="2"
     inkscape:pageopacity="0.0"
     inkscape:pagecheckerboard="0"
     inkscape:deskcolor="#d1d1d1"
     showgrid="false" />
  <path
     d="m 0,5.6674 h 20 v 1.2 H 19.1624 L 18.1528,15.73 c -0.0967,0.7197 -0.4508,1.38 -0.9968,1.8588 -0.5461,0.4787 -1.247,0.7434 -1.9732,0.7452 H 4.8172 C 4.09106,18.3322 3.39015,18.0674 2.84417,17.5887 2.29818,17.11 1.94409,16.4497 1.8474,15.73 L 0.838,6.8672 H 0 Z m 3.0372,9.9056 c 0.05792,0.4314 0.27013,0.8272 0.59738,1.1142 0.32724,0.287 0.74736,0.4457 1.18262,0.4468 h 10.3656 c 0.4353,-0.0011 0.8554,-0.1598 1.1827,-0.4468 0.3272,-0.287 0.5394,-0.6828 0.5973,-1.1142 l 0.989,-8.7058 H 2.0482 Z M 15.174,1.2 H 4.826 L 4.04,4.868 H 2.812 L 3.856,0 h 12.288 l 1.044,4.868 H 15.96 Z"
     fill="#ffffff"
     id="path11985" />
  <path
     d="M 9.3463,14.2748 6.9541,11.8824 7.8025,11.034 9.3463,12.5778 12.1977,9.72656 13.0461,10.575 Z"
     fill="#ffffff"
     id="path11987" />
</svg>
