<?xml version="1.0" encoding="UTF-8" standalone="no"?>
<svg
   width="16.868164"
   height="16.864029"
   viewBox="0 0 16.868164 16.864029"
   fill="none"
   version="1.1"
   id="svg9529"
   sodipodi:docname="povecalo.svg"
   xmlns:inkscape="http://www.inkscape.org/namespaces/inkscape"
   xmlns:sodipodi="http://sodipodi.sourceforge.net/DTD/sodipodi-0.dtd"
   xmlns="http://www.w3.org/2000/svg"
   xmlns:svg="http://www.w3.org/2000/svg">
  <defs
     id="defs9533" />
  <sodipodi:namedview
     id="namedview9531"
     pagecolor="#ffffff"
     bordercolor="#000000"
     borderopacity="0.25"
     inkscape:showpageshadow="2"
     inkscape:pageopacity="0.0"
     inkscape:pagecheckerboard="0"
     inkscape:deskcolor="#d1d1d1"
     showgrid="false" />
  <path
     d="M 10.886087,11.4886 C 9.0709874,13.0736 6.3567574,13.573 4.0734774,12.6394 1.3203474,11.5138 -0.43339959,8.3475402 0.09331741,5.4016002 0.62034741,2.4536302 3.3612874,0.06910023 6.4262874,0.00113223 6.4826974,1.9523171e-4 6.5390974,-1.17768e-4 6.5956674,3.82317e-5 9.6079874,0.02863223 12.447887,2.3531602 13.005787,5.3612902 c 0.3741,2.01625 -0.2709,4.19451 -1.6701,5.6926098 l 5.4354,5.2844 c 0.1166,0.1231 0.0965,0.1641 0.0946,0.2327 -0.0066,0.2383 -0.3297,0.3948 -0.5303,0.2154 z M 6.5148774,0.62504023 c -2.68875,0.02547 -5.21171,2.05827997 -5.77092999,4.70483997 -0.41157,1.94828 0.23672,4.08842 1.66233999,5.4801198 1.63719,1.5982 4.2286,2.1347 6.39016,1.2508 2.5004396,-1.0222 4.0909396,-3.9115398 3.5948396,-6.5856098 -0.4917,-2.65109 -2.9468996,-4.78749997 -5.7229696,-4.84920997 -0.05114,-7.8e-4 -0.10229,-0.0011 -0.15344,-9.4e-4 z"
     fill="#006daa"
     id="path9527" />
</svg>
